<svg width="554" height="824" viewBox="0 0 554 824" fill="none" xmlns="http://www.w3.org/2000/svg">
<g clip-path="url(#clip0_3_131)">
<rect width="554" height="824" rx="32" fill="#F7F7F7"/>
<rect width="654" height="900" fill="url(#paint0_linear_3_131)"/>
<path d="M549.842 606.298H0V656.144H549.842V606.298Z" fill="#ECEDF1"/>
<path fill-rule="evenodd" clip-rule="evenodd" d="M38.0009 630.985H3.63583L7.26822 624.112H41.2381L38.0009 630.985Z" fill="#DCDCDD"/>
<path fill-rule="evenodd" clip-rule="evenodd" d="M102.844 630.985H68.4793L72.1117 624.112H106.075L102.844 630.985Z" fill="#DCDCDD"/>
<path fill-rule="evenodd" clip-rule="evenodd" d="M167.702 630.985H133.337L136.972 624.112H170.935L167.702 630.985Z" fill="#DCDCDD"/>
<path fill-rule="evenodd" clip-rule="evenodd" d="M232.538 630.985H198.173L201.806 624.112H235.772L232.538 630.985Z" fill="#DCDCDD"/>
<path fill-rule="evenodd" clip-rule="evenodd" d="M297.382 630.985H263.017L266.649 624.112H300.626L297.382 630.985Z" fill="#DCDCDD"/>
<path fill-rule="evenodd" clip-rule="evenodd" d="M362.229 630.985H327.864L331.5 624.112H365.463L362.229 630.985Z" fill="#DCDCDD"/>
<path fill-rule="evenodd" clip-rule="evenodd" d="M427.076 630.985H392.711L396.343 624.112H430.31L427.076 630.985Z" fill="#DCDCDD"/>
<path fill-rule="evenodd" clip-rule="evenodd" d="M491.919 630.985H457.554L461.187 624.112H495.15L491.919 630.985Z" fill="#DCDCDD"/>
<path fill-rule="evenodd" clip-rule="evenodd" d="M556.766 630.985H522.401L526.037 624.112H560L556.766 630.985Z" fill="#DCDCDD"/>
<path opacity="0.71" fill-rule="evenodd" clip-rule="evenodd" d="M156.471 620.975C156.471 620.975 95.1226 621.384 104.539 631.219C113.955 641.054 286.33 628.044 319.128 629.267C351.926 630.49 471.063 628.69 428.457 620.975C385.851 613.26 239.023 623.686 156.471 620.975Z" fill="#CFCFCE"/>
<path fill-rule="evenodd" clip-rule="evenodd" d="M129.646 259.199C131.545 259.202 133.427 259.564 135.192 260.265C137.942 250.828 145.931 244 155.361 244C162.76 244 169.272 248.203 173.063 254.571C173.688 254.489 174.318 254.448 174.949 254.447C181.451 254.447 187.073 258.622 189.754 264.681C191.128 263.984 192.646 263.62 194.187 263.619C198.235 263.619 201.747 266.1 203.586 269.763C204.365 269.522 205.176 269.398 205.991 269.395C210.985 269.395 215.036 273.88 215.036 279.416C215.036 280.451 214.89 281.48 214.603 282.474H113.797C113.375 280.832 113.163 279.143 113.164 277.447C113.164 267.375 120.542 259.199 129.646 259.199Z" fill="#EEEFF3"/>
<path fill-rule="evenodd" clip-rule="evenodd" d="M227.59 253.244C232.471 253.251 236.704 256.62 237.807 261.375C239.76 260.41 242.058 260.443 243.983 261.464C245.907 262.486 247.223 264.371 247.518 266.529H217.462C216.595 263.37 217.252 259.988 219.238 257.383C221.225 254.778 224.314 253.25 227.59 253.251V253.244Z" fill="#EEEFF3"/>
<path fill-rule="evenodd" clip-rule="evenodd" d="M209.033 295.114H228.813C229.703 295.114 230.425 294.392 230.425 293.502C230.425 292.612 229.703 291.89 228.813 291.89H209.033C208.605 291.89 208.195 292.06 207.893 292.362C207.591 292.665 207.421 293.075 207.421 293.502C207.421 293.93 207.591 294.339 207.893 294.642C208.195 294.944 208.605 295.114 209.033 295.114Z" fill="#D5D7D8"/>
<path fill-rule="evenodd" clip-rule="evenodd" d="M201.493 304.182H221.273C222.164 304.182 222.885 303.461 222.885 302.571C222.885 301.681 222.164 300.959 221.273 300.959H201.493C200.603 300.959 199.881 301.681 199.881 302.571C199.881 303.461 200.603 304.182 201.493 304.182Z" fill="#D5D7D8"/>
<path fill-rule="evenodd" clip-rule="evenodd" d="M152.719 295.114H188.616C189.506 295.114 190.228 294.392 190.228 293.502C190.228 292.612 189.506 291.89 188.616 291.89H152.719C151.828 291.89 151.107 292.612 151.107 293.502C151.107 294.392 151.828 295.114 152.719 295.114Z" fill="#D5D7D8"/>
<path fill-rule="evenodd" clip-rule="evenodd" d="M198.221 293.502C198.227 294.391 198.951 295.107 199.84 295.103C200.729 295.099 201.447 294.377 201.445 293.488C201.443 292.599 200.722 291.88 199.833 291.88C199.404 291.88 198.992 292.051 198.69 292.356C198.387 292.66 198.219 293.073 198.221 293.502Z" fill="#D5D7D8"/>
<path fill-rule="evenodd" clip-rule="evenodd" d="M190.53 302.571C190.53 303.461 191.252 304.182 192.142 304.182C193.032 304.182 193.754 303.461 193.754 302.571C193.754 301.681 193.032 300.959 192.142 300.959C191.715 300.959 191.305 301.129 191.003 301.431C190.7 301.733 190.53 302.143 190.53 302.571Z" fill="#D5D7D8"/>
<path fill-rule="evenodd" clip-rule="evenodd" d="M206.703 428.115C205.791 428.115 204.888 428.299 204.05 428.658C203.204 426.208 201.388 424.215 199.027 423.148C196.666 422.08 193.969 422.032 191.572 423.015C190.321 415.482 183.806 409.958 176.169 409.956C175.556 409.958 174.943 409.996 174.334 410.07C170.806 401.925 162.777 396.654 153.901 396.654C145.024 396.654 136.996 401.925 133.467 410.07C132.858 409.996 132.246 409.958 131.632 409.956C124.128 409.958 117.685 415.298 116.292 422.671C111.832 421.398 107.11 423.572 105.178 427.788C103.051 426.96 100.652 427.236 98.7688 428.527C97.2986 423.788 93.1201 420.401 88.1796 419.942C83.2392 419.483 78.5084 422.044 76.1909 426.431C71.8876 423.401 65.9432 424.43 62.9088 428.73C60.8122 427.136 57.9935 426.869 55.6348 428.04C53.2762 429.212 51.7855 431.619 51.7882 434.252C51.7881 434.455 51.7984 434.658 51.8191 434.86H213.449C213.449 431.135 210.428 428.115 206.703 428.115Z" fill="#EEEFF3"/>
<path fill-rule="evenodd" clip-rule="evenodd" d="M418.653 336.138C417.742 336.136 416.84 336.321 416.003 336.681C415.156 334.233 413.338 332.241 410.977 331.173C408.617 330.105 405.921 330.055 403.522 331.035C402.272 323.502 395.756 317.978 388.12 317.976C387.506 317.978 386.894 318.015 386.284 318.086C382.754 309.944 374.726 304.676 365.851 304.676C356.976 304.676 348.948 309.944 345.417 318.086C344.809 318.015 344.198 317.978 343.586 317.976C336.08 317.976 329.636 323.316 328.242 330.691C323.782 329.426 319.064 331.599 317.128 335.812C315.002 334.984 312.603 335.262 310.722 336.554C309.252 331.815 305.074 328.427 300.133 327.969C295.193 327.51 290.462 330.071 288.145 334.458C283.84 331.427 277.895 332.456 274.859 336.757C272.762 335.163 269.944 334.896 267.585 336.067C265.226 337.238 263.736 339.646 263.738 342.279C263.738 342.485 263.738 342.688 263.769 342.887H425.402C425.403 341.097 424.692 339.38 423.426 338.114C422.16 336.848 420.443 336.137 418.653 336.138Z" fill="#EEEFF3"/>
<path fill-rule="evenodd" clip-rule="evenodd" d="M140.488 472.472H172.874C174.331 472.472 175.513 471.291 175.513 469.833C175.513 468.375 174.331 467.194 172.874 467.194H140.488C139.788 467.194 139.117 467.472 138.622 467.967C138.127 468.462 137.849 469.133 137.849 469.833C137.849 471.291 139.03 472.472 140.488 472.472Z" fill="#D5D7D8"/>
<path d="M125.426 472.472C126.883 472.472 128.065 471.291 128.065 469.833C128.065 468.375 126.883 467.194 125.426 467.194C123.968 467.194 122.787 468.375 122.787 469.833C122.787 471.291 123.968 472.472 125.426 472.472Z" fill="#D5D7D8"/>
<path fill-rule="evenodd" clip-rule="evenodd" d="M122.491 492.83H154.877C156.334 492.83 157.516 491.648 157.516 490.19C157.516 488.733 156.334 487.551 154.877 487.551H122.491C121.033 487.551 119.852 488.733 119.852 490.19C119.852 491.648 121.033 492.83 122.491 492.83Z" fill="#D5D7D8"/>
<path d="M107.181 492.83C108.639 492.83 109.821 491.648 109.821 490.19C109.821 488.733 108.639 487.551 107.181 487.551C105.724 487.551 104.542 488.733 104.542 490.19C104.542 491.648 105.724 492.83 107.181 492.83Z" fill="#D5D7D8"/>
<path d="M92.3631 492.83C93.8207 492.83 95.0023 491.648 95.0023 490.19C95.0023 488.733 93.8207 487.551 92.3631 487.551C90.9055 487.551 89.7239 488.733 89.7239 490.19C89.7239 491.648 90.9055 492.83 92.3631 492.83Z" fill="#D5D7D8"/>
<path fill-rule="evenodd" clip-rule="evenodd" d="M121.852 600.525C121.852 600.525 101.305 570.971 104.985 560.274C108.666 549.576 124.745 567.542 124.745 567.542C124.745 567.542 131.787 532.583 138.622 529.517C145.457 526.452 163.856 552.542 163.856 552.542C163.856 552.542 191.005 520.665 201.62 522.768C212.235 524.871 214.335 548.373 214.335 548.373C214.335 548.373 235.298 536.095 239.532 540.208C243.765 544.322 239.532 561.597 239.532 561.597C239.532 561.597 253.24 557.61 258.498 563.847C263.756 570.085 239.525 597.212 239.525 597.212L121.852 600.525Z" fill="#D5D7D8"/>
<path fill-rule="evenodd" clip-rule="evenodd" d="M118.103 606.315C118.103 606.315 103.82 596.693 101.985 587.095C100.15 577.497 120.735 585.92 120.735 585.92C120.735 585.92 111.766 560.792 115.432 555.995C119.099 551.198 136.825 561.837 136.825 561.837C136.825 561.837 155.262 529.397 164.379 533.878C173.496 538.359 186.922 565.799 186.922 565.799C186.922 565.799 215.669 544.864 221.17 551.084C226.672 557.304 214.438 577.325 214.438 577.325C214.438 577.325 237.58 571.682 240.068 577.325C242.556 582.968 227.274 595.356 227.274 595.356C227.274 595.356 247.254 590.16 248.876 596.342C250.498 602.525 222.383 606.308 222.383 606.308L118.103 606.315Z" fill="#ECEDF1"/>
<path fill-rule="evenodd" clip-rule="evenodd" d="M231.786 581.428C219.514 584.837 207.242 584.837 194.967 578.703C177.241 570.521 163.609 590.975 147.244 598.473C139.746 601.882 130.199 595.064 121.336 597.098C118.034 597.772 115.181 599.834 113.505 602.758C116.103 604.944 118.103 606.287 118.103 606.287H222.39C222.39 606.287 250.508 602.507 248.882 596.322C247.257 590.136 227.28 595.332 227.28 595.332C227.28 595.332 237.741 586.847 239.937 580.724C237.207 580.205 234.387 580.449 231.786 581.428Z" fill="#D5D7D8"/>
<path fill-rule="evenodd" clip-rule="evenodd" d="M201.582 521.043C201.809 523.954 201.28 526.37 200.404 526.438C199.527 526.507 198.634 524.201 198.407 521.284C198.18 518.366 198.709 515.957 199.586 515.888C200.462 515.82 201.355 518.132 201.582 521.043Z" fill="#DCDCDD"/>
<path fill-rule="evenodd" clip-rule="evenodd" d="M206.747 524.129C204.943 526.232 202.967 527.497 202.331 526.95C201.696 526.404 202.651 524.263 204.459 522.163C206.266 520.063 208.239 518.795 208.875 519.342C209.51 519.888 208.555 522.029 206.747 524.129Z" fill="#DCDCDD"/>
<path fill-rule="evenodd" clip-rule="evenodd" d="M256.319 559.854C255.426 562.04 254.168 563.597 253.511 563.325C252.855 563.054 253.041 561.067 253.934 558.878C254.828 556.689 256.085 555.136 256.742 555.408C257.398 555.679 257.209 557.665 256.319 559.854Z" fill="#DCDCDD"/>
<path fill-rule="evenodd" clip-rule="evenodd" d="M130.787 542.6C132.697 543.974 133.907 545.579 133.488 546.156C133.069 546.734 131.182 546.071 129.271 544.682C127.361 543.294 126.151 541.699 126.57 541.126C126.989 540.552 128.869 541.208 130.787 542.6Z" fill="#DCDCDD"/>
<path fill-rule="evenodd" clip-rule="evenodd" d="M133.371 540.435C134.175 542.181 134.402 543.789 133.873 544.029C133.343 544.27 132.275 543.053 131.467 541.311C130.66 539.569 130.436 537.957 130.965 537.717C131.495 537.476 132.567 538.693 133.371 540.435Z" fill="#DCDCDD"/>
<path fill-rule="evenodd" clip-rule="evenodd" d="M258.793 563.466C257.041 564.215 255.439 564.394 255.216 563.868C254.993 563.342 256.226 562.304 257.965 561.559C259.704 560.813 261.319 560.631 261.543 561.16C261.766 561.689 260.546 562.72 258.793 563.466Z" fill="#DCDCDD"/>
<path fill-rule="evenodd" clip-rule="evenodd" d="M162.595 534.998C162.595 538.579 161.719 541.486 160.643 541.486C159.567 541.486 158.688 538.579 158.688 534.998C158.688 531.417 159.564 528.514 160.643 528.514C161.722 528.514 162.595 531.417 162.595 534.998Z" fill="#DCDCDD"/>
<path fill-rule="evenodd" clip-rule="evenodd" d="M167.172 536.555C166.08 539.266 164.537 541.194 163.736 540.864C162.935 540.534 163.145 538.074 164.238 535.366C165.331 532.658 166.874 530.73 167.691 531.057C168.509 531.383 168.265 533.861 167.172 536.555Z" fill="#DCDCDD"/>
<path fill-rule="evenodd" clip-rule="evenodd" d="M102.253 580.799C104.903 583.205 106.46 585.817 105.731 586.614C105.003 587.411 102.271 586.098 99.6244 583.686C96.9783 581.274 95.4216 578.669 96.1467 577.871C96.8718 577.074 99.6073 578.387 102.253 580.799Z" fill="#DCDCDD"/>
<path fill-rule="evenodd" clip-rule="evenodd" d="M106.501 578.48C107.769 581.112 108.15 583.555 107.36 583.937C106.57 584.318 104.899 582.49 103.635 579.861C102.37 577.232 101.985 574.785 102.776 574.404C103.566 574.023 105.236 575.844 106.501 578.48Z" fill="#DCDCDD"/>
<path fill-rule="evenodd" clip-rule="evenodd" d="M219.734 546.634C219.961 549.545 219.435 551.96 218.559 552.029C217.682 552.098 216.785 549.792 216.559 546.874C216.332 543.957 216.861 541.548 217.737 541.479C218.614 541.411 219.507 543.723 219.734 546.634Z" fill="#DCDCDD"/>
<path fill-rule="evenodd" clip-rule="evenodd" d="M224.899 549.72C223.095 551.823 221.119 553.088 220.483 552.541C219.847 551.995 220.803 549.854 222.61 547.751C224.418 545.648 226.39 544.387 227.026 544.93C227.662 545.473 226.707 547.621 224.899 549.72Z" fill="#DCDCDD"/>
<path fill-rule="evenodd" clip-rule="evenodd" d="M141.086 577.717C143.327 579.59 144.687 581.655 144.124 582.329C143.56 583.002 141.289 582.03 139.045 580.16C136.801 578.291 135.447 576.222 136.01 575.548C136.574 574.875 138.835 575.844 141.086 577.717Z" fill="#DCDCDD"/>
<path fill-rule="evenodd" clip-rule="evenodd" d="M146.904 576.177C147.148 578.926 146.667 581.236 145.839 581.308C145.01 581.38 144.138 579.201 143.897 576.442C143.656 573.682 144.134 571.383 144.966 571.311C145.797 571.239 146.663 573.418 146.904 576.177Z" fill="#DCDCDD"/>
<path fill-rule="evenodd" clip-rule="evenodd" d="M192.476 558.892C194.716 560.765 196.077 562.83 195.513 563.504C194.95 564.177 192.675 563.205 190.434 561.335C188.194 559.466 186.833 557.397 187.396 556.724C187.96 556.05 190.235 557.019 192.476 558.892Z" fill="#DCDCDD"/>
<path fill-rule="evenodd" clip-rule="evenodd" d="M198.287 557.353C198.527 560.102 198.05 562.411 197.218 562.483C196.386 562.555 195.517 560.377 195.276 557.617C195.036 554.858 195.513 552.559 196.345 552.487C197.177 552.414 198.053 554.593 198.287 557.353Z" fill="#DCDCDD"/>
<path fill-rule="evenodd" clip-rule="evenodd" d="M228.445 572.789C227.758 575.04 226.641 576.693 225.964 576.483C225.287 576.273 225.301 574.284 225.995 572.016C226.689 569.747 227.799 568.112 228.476 568.321C229.153 568.531 229.14 570.541 228.445 572.789Z" fill="#DCDCDD"/>
<path fill-rule="evenodd" clip-rule="evenodd" d="M231.277 574.373C230.061 575.703 228.755 576.483 228.353 576.119C227.951 575.755 228.614 574.38 229.83 573.05C231.047 571.72 232.353 570.944 232.751 571.308C233.15 571.672 232.49 573.047 231.277 574.373Z" fill="#DCDCDD"/>
<path fill-rule="evenodd" clip-rule="evenodd" d="M116.8 553.05C117.776 555.194 119.092 556.693 119.735 556.397C120.378 556.102 120.113 554.129 119.137 551.988C118.161 549.847 116.845 548.349 116.202 548.641C115.56 548.933 115.81 550.909 116.8 553.05Z" fill="#DCDCDD"/>
<path fill-rule="evenodd" clip-rule="evenodd" d="M114.199 554.985C115.573 556.15 116.968 556.754 117.319 556.342C117.67 555.93 116.838 554.651 115.463 553.49C114.089 552.328 112.693 551.72 112.343 552.115C111.992 552.51 112.824 553.823 114.199 554.985Z" fill="#DCDCDD"/>
<path fill-rule="evenodd" clip-rule="evenodd" d="M247.15 602.38C247.15 602.38 233.202 582.308 235.7 575.05C238.198 567.792 249.123 579.985 249.123 579.985C249.123 579.985 253.903 556.249 258.542 554.167C263.182 552.084 275.677 569.799 275.677 569.799C275.677 569.799 294.121 548.15 301.317 549.586C308.513 551.022 309.946 566.968 309.946 566.968C309.946 566.968 324.169 558.634 327.049 561.428C329.929 564.222 327.049 575.947 327.049 575.947C327.049 575.947 336.359 573.243 339.929 577.476C343.5 581.71 327.049 600.129 327.049 600.129L247.15 602.38Z" fill="#D5D7D8"/>
<path fill-rule="evenodd" clip-rule="evenodd" d="M244.607 606.315C244.607 606.315 234.91 599.786 233.662 593.256C232.415 586.727 246.377 592.456 246.377 592.456C246.377 592.456 240.284 575.397 242.776 572.139C245.267 568.882 257.298 576.112 257.298 576.112C257.298 576.112 269.818 554.088 276.01 557.129C282.203 560.17 291.313 578.803 291.313 578.803C291.313 578.803 310.832 564.586 314.568 568.81C318.303 573.033 310.001 586.631 310.001 586.631C310.001 586.631 325.712 582.803 327.403 586.631C329.094 590.459 318.716 598.875 318.716 598.875C318.716 598.875 332.28 595.349 333.383 599.562C334.486 603.775 315.413 606.315 315.413 606.315H244.607Z" fill="#ECEDF1"/>
<path fill-rule="evenodd" clip-rule="evenodd" d="M321.791 589.415C313.458 591.727 305.128 591.727 296.794 587.562C284.766 582.006 275.488 595.892 264.391 600.985C259.302 603.301 252.821 598.672 246.803 600.061C244.558 600.517 242.619 601.92 241.484 603.909C243.25 605.394 244.607 606.315 244.607 606.315H315.399C315.399 606.315 334.489 603.751 333.386 599.555C332.283 595.36 318.719 598.868 318.719 598.868C318.719 598.868 325.822 593.105 327.31 588.947C325.463 588.594 323.553 588.756 321.791 589.415Z" fill="#D5D7D8"/>
<path fill-rule="evenodd" clip-rule="evenodd" d="M301.286 548.414C301.437 550.39 301.08 552.029 300.485 552.078C299.891 552.126 299.282 550.559 299.131 548.583C298.98 546.607 299.334 544.964 299.928 544.919C300.523 544.875 301.131 546.438 301.286 548.414Z" fill="#DCDCDD"/>
<path fill-rule="evenodd" clip-rule="evenodd" d="M304.791 550.51C303.564 551.937 302.224 552.796 301.794 552.425C301.365 552.053 302.011 550.6 303.238 549.174C304.465 547.748 305.805 546.888 306.234 547.256C306.664 547.624 306.018 549.084 304.791 550.51Z" fill="#DCDCDD"/>
<path fill-rule="evenodd" clip-rule="evenodd" d="M338.448 574.765C337.843 576.25 336.988 577.305 336.541 577.122C336.094 576.94 336.225 575.59 336.83 574.102C337.434 572.614 338.29 571.562 338.737 571.744C339.184 571.927 339.053 573.277 338.448 574.765Z" fill="#DCDCDD"/>
<path fill-rule="evenodd" clip-rule="evenodd" d="M253.219 563.05C254.515 563.992 255.336 565.074 255.054 565.455C254.773 565.837 253.487 565.401 252.192 564.456C250.896 563.51 250.071 562.431 250.357 562.05C250.642 561.669 251.92 562.105 253.219 563.05Z" fill="#DCDCDD"/>
<path fill-rule="evenodd" clip-rule="evenodd" d="M254.989 561.579C255.536 562.765 255.676 563.858 255.333 564.023C254.989 564.187 254.243 563.359 253.7 562.174C253.157 560.988 253.013 559.899 253.357 559.734C253.7 559.569 254.429 560.397 254.989 561.579Z" fill="#DCDCDD"/>
<path fill-rule="evenodd" clip-rule="evenodd" d="M340.129 577.219C338.94 577.724 337.854 577.847 337.699 577.49C337.544 577.133 338.386 576.428 339.575 575.923C340.764 575.418 341.854 575.294 342.005 575.652C342.156 576.009 341.318 576.71 340.129 577.219Z" fill="#DCDCDD"/>
<path fill-rule="evenodd" clip-rule="evenodd" d="M274.814 557.889C274.814 560.322 274.22 562.294 273.488 562.294C272.756 562.294 272.161 560.322 272.161 557.889C272.161 555.456 272.756 553.487 273.488 553.487C274.22 553.487 274.814 555.456 274.814 557.889Z" fill="#DCDCDD"/>
<path fill-rule="evenodd" clip-rule="evenodd" d="M277.921 558.957C277.182 560.796 276.13 562.105 275.577 561.882C275.024 561.658 275.175 559.988 275.921 558.15C276.667 556.311 277.711 554.998 278.265 555.222C278.818 555.445 278.663 557.115 277.921 558.957Z" fill="#DCDCDD"/>
<path fill-rule="evenodd" clip-rule="evenodd" d="M233.848 588.985C235.645 590.624 236.7 592.394 236.205 592.933C235.71 593.473 233.858 592.59 232.061 590.944C230.263 589.298 229.205 587.538 229.7 586.999C230.195 586.459 232.05 587.346 233.848 588.985Z" fill="#DCDCDD"/>
<path fill-rule="evenodd" clip-rule="evenodd" d="M236.731 587.414C237.59 589.201 237.851 590.851 237.312 591.119C236.772 591.387 235.642 590.139 234.782 588.37C233.923 586.6 233.662 584.933 234.202 584.665C234.741 584.397 235.872 585.621 236.731 587.414Z" fill="#DCDCDD"/>
<path fill-rule="evenodd" clip-rule="evenodd" d="M313.609 565.789C313.764 567.765 313.406 569.404 312.812 569.452C312.217 569.5 311.609 567.933 311.437 565.957C311.265 563.981 311.64 562.339 312.234 562.294C312.829 562.249 313.454 563.813 313.609 565.789Z" fill="#DCDCDD"/>
<path fill-rule="evenodd" clip-rule="evenodd" d="M317.118 567.885C315.891 569.311 314.547 570.17 314.118 569.799C313.688 569.428 314.334 567.974 315.561 566.548C316.788 565.122 318.132 564.263 318.561 564.634C318.991 565.005 318.345 566.452 317.118 567.885Z" fill="#DCDCDD"/>
<path fill-rule="evenodd" clip-rule="evenodd" d="M260.213 586.892C261.732 588.164 262.656 589.566 262.275 590.023C261.893 590.48 260.347 589.824 258.838 588.552C257.329 587.281 256.395 585.879 256.776 585.418C257.158 584.958 258.69 585.621 260.213 586.892Z" fill="#DCDCDD"/>
<path fill-rule="evenodd" clip-rule="evenodd" d="M264.161 585.848C264.326 587.724 264 589.284 263.436 589.332C262.872 589.38 262.281 587.903 262.12 586.026C261.958 584.15 262.281 582.59 262.845 582.542C263.409 582.494 264 583.978 264.161 585.848Z" fill="#DCDCDD"/>
<path fill-rule="evenodd" clip-rule="evenodd" d="M295.1 574.112C296.622 575.384 297.547 576.786 297.162 577.243C296.777 577.7 295.237 577.04 293.725 575.768C292.213 574.497 291.282 573.095 291.663 572.638C292.045 572.181 293.581 572.841 295.1 574.112Z" fill="#DCDCDD"/>
<path fill-rule="evenodd" clip-rule="evenodd" d="M299.052 573.067C299.217 574.94 298.891 576.504 298.327 576.548C297.763 576.593 297.172 575.119 297.007 573.246C296.842 571.373 297.169 569.81 297.732 569.761C298.296 569.713 298.887 571.191 299.052 573.067Z" fill="#DCDCDD"/>
<path fill-rule="evenodd" clip-rule="evenodd" d="M319.523 583.549C319.053 585.075 318.3 586.198 317.839 586.054C317.379 585.91 317.389 584.562 317.86 583.033C318.331 581.504 319.087 580.384 319.544 580.525C320.001 580.666 319.994 582.02 319.523 583.549Z" fill="#DCDCDD"/>
<path fill-rule="evenodd" clip-rule="evenodd" d="M321.448 584.624C320.623 585.524 319.73 586.053 319.461 585.806C319.193 585.559 319.64 584.627 320.461 583.723C321.283 582.82 322.18 582.294 322.448 582.541C322.716 582.789 322.269 583.72 321.448 584.624Z" fill="#DCDCDD"/>
<path fill-rule="evenodd" clip-rule="evenodd" d="M243.724 570.147C244.384 571.6 245.277 572.617 245.714 572.418C246.15 572.219 245.972 570.878 245.308 569.425C244.645 567.971 243.752 566.954 243.315 567.153C242.879 567.353 243.061 568.693 243.724 570.147Z" fill="#DCDCDD"/>
<path fill-rule="evenodd" clip-rule="evenodd" d="M241.954 571.459C242.889 572.249 243.838 572.662 244.075 572.38C244.312 572.098 243.731 571.232 242.814 570.442C241.896 569.651 240.934 569.243 240.697 569.524C240.459 569.806 241.023 570.672 241.954 571.459Z" fill="#DCDCDD"/>
<path fill-rule="evenodd" clip-rule="evenodd" d="M463.699 530.122C488.658 528.524 517.456 500.318 509.861 482.864C502.267 465.41 500.531 453.857 508.215 442.063C515.185 431.369 489.163 386.049 499.036 368.681C495.345 365.186 490.242 363.234 485.531 364.839C479.551 366.881 476.596 373.472 474.699 379.503C472.62 386.165 471.045 392.975 469.988 399.874C468.981 406.448 468.269 413.517 464.022 418.63C459.355 424.242 451.478 426.163 446.286 431.293C441.93 435.678 439.93 441.88 440.904 447.984C441.794 453.273 444.846 457.902 447.025 462.806C449.204 467.709 450.461 473.627 447.784 478.27C445.43 482.366 440.681 484.39 437.389 487.778C433.179 492.108 431.615 498.562 432.368 504.551C433.121 510.541 435.973 516.101 439.585 520.947C441.464 523.474 443.552 525.839 445.829 528.016C451.611 529.783 457.664 530.497 463.699 530.122Z" fill="#ECEDF1"/>
<path fill-rule="evenodd" clip-rule="evenodd" d="M488.328 555.455C493.641 543.954 512.831 535.96 520.25 529.617C528.078 522.919 535.243 513.94 536.745 503.448C538.422 491.699 532.003 485.421 526.601 476.197C517.666 460.922 535.745 445.932 529.618 430.596C526.456 422.692 517.167 419.156 512.164 412.269C508.164 406.771 507.274 399.647 506.717 392.86C506.16 386.073 505.744 379.015 502.449 373.056C501.544 371.434 500.396 369.96 499.047 368.685C489.174 386.052 515.198 431.372 508.226 442.066C500.542 453.86 502.28 465.434 509.872 482.867C517.463 500.3 488.668 528.527 463.709 530.125C457.675 530.503 451.622 529.793 445.839 528.029C449.419 531.462 453.436 534.406 457.788 536.785C468.376 542.572 481.5 545.49 488.328 555.455Z" fill="#D5D7D8"/>
<path fill-rule="evenodd" clip-rule="evenodd" d="M513.676 489.606L513.178 489.146L488.658 515.854V451.029L504.652 430.768L504.119 430.348L488.658 449.936V384.654H487.981V418.895L477.094 403.056L476.537 403.441L487.981 420.09V472.455L459.08 443.3L458.599 443.778L487.981 473.417V535.995L450.805 498.95L450.327 499.428L487.981 536.95V605.37H488.658V516.854L513.676 489.606Z" fill="#D5D7D8"/>
<path fill-rule="evenodd" clip-rule="evenodd" d="M136.491 488.503C128.794 475.362 144.361 462.465 139.086 449.266C136.368 442.465 128.374 439.424 124.072 433.499C120.635 428.757 119.862 422.637 119.384 416.798C118.907 410.96 118.546 404.884 115.711 399.757C114.932 398.364 113.945 397.098 112.783 396.004C109.608 392.997 105.223 391.317 101.161 392.698C96.0058 394.454 93.4593 400.124 91.8407 405.314C90.0541 411.046 88.6997 416.904 87.7891 422.839C86.9231 428.496 86.3114 434.578 82.655 438.991C78.6377 443.819 71.8609 445.472 67.3934 449.888C63.6436 453.66 61.9222 458.996 62.761 464.249C63.5273 468.802 66.1528 472.785 68.0257 477.001C69.8986 481.218 70.9777 486.314 68.6787 490.317C66.6546 493.843 62.5685 495.582 59.7437 498.5C56.1217 502.221 54.7745 507.778 55.424 512.933C56.0735 518.087 58.5169 522.871 61.6098 527.043C65.7893 532.654 71.1296 537.298 77.2665 540.658C86.3973 545.641 97.6897 548.136 103.559 556.723C108.133 546.826 124.642 539.95 131.027 534.49C137.763 528.727 143.928 520.998 145.217 511.971C146.663 501.847 141.137 496.441 136.491 488.503Z" fill="#ECEDF1"/>
<path d="M103.773 484.208H103.36V606.435H103.773V484.208Z" fill="#D5D7D8"/>
<path fill-rule="evenodd" clip-rule="evenodd" d="M103.411 523.862L121.016 506.257L121.259 506.5L103.654 524.105L103.411 523.862Z" fill="#D5D7D8"/>
<path fill-rule="evenodd" clip-rule="evenodd" d="M88.2818 486.877L88.5248 486.634L103.654 501.763L103.411 502.006L88.2818 486.877Z" fill="#D5D7D8"/>
<path fill-rule="evenodd" clip-rule="evenodd" d="M300.588 581.84C300.55 581.765 300.506 581.7 300.471 581.624C300.437 581.548 300.392 581.48 300.358 581.407C300.323 581.335 300.279 581.263 300.244 581.188C300.21 581.112 300.162 581.047 300.128 580.974C300.093 580.902 300.049 580.83 300.014 580.755C299.98 580.679 299.935 580.614 299.901 580.538C299.866 580.462 299.818 580.397 299.784 580.322C299.75 580.246 299.705 580.181 299.671 580.105C299.636 580.029 299.592 579.964 299.557 579.889C299.523 579.813 299.475 579.748 299.44 579.672C299.406 579.596 299.361 579.528 299.327 579.456C299.293 579.383 299.248 579.311 299.213 579.239C299.179 579.167 299.131 579.095 299.097 579.019C299.062 578.944 299.018 578.878 298.983 578.803C298.949 578.727 298.904 578.662 298.87 578.586C298.835 578.511 298.787 578.445 298.753 578.37C298.719 578.294 298.674 578.229 298.64 578.153C298.605 578.078 298.561 578.012 298.526 577.937C298.492 577.861 298.444 577.796 298.409 577.72C298.375 577.645 298.33 577.579 298.296 577.504C298.262 577.428 298.217 577.359 298.183 577.287C298.148 577.215 298.1 577.143 298.066 577.071C298.031 576.999 297.987 576.926 297.952 576.851C297.918 576.775 297.873 576.71 297.839 576.634C297.805 576.559 297.756 576.493 297.722 576.418C297.688 576.342 297.643 576.277 297.609 576.201C297.574 576.126 297.53 576.06 297.495 575.985C297.461 575.909 297.413 575.844 297.378 575.768C297.344 575.693 297.299 575.627 297.265 575.552C297.231 575.476 297.186 575.411 297.152 575.335C297.117 575.26 297.069 575.191 297.035 575.119C297 575.047 296.956 574.974 296.921 574.899C296.887 574.823 296.842 574.758 296.808 574.682C296.774 574.607 296.725 574.541 296.691 574.466C296.657 574.39 296.612 574.325 296.578 574.249C296.543 574.174 296.499 574.108 296.464 574.033C296.43 573.957 296.382 573.892 296.347 573.816C296.313 573.741 296.268 573.675 296.234 573.6C296.2 573.524 296.155 573.459 296.121 573.383C294.945 570.978 294.667 567.995 295.557 564.792L364.511 318.341C366.012 312.969 371.889 308.859 377.652 309.131L487.874 314.327C491.61 314.502 494.545 316.42 495.919 319.186L496.036 319.402L496.15 319.619C496.187 319.691 496.229 319.763 496.263 319.835L496.38 320.052L496.493 320.272C496.531 320.341 496.572 320.413 496.607 320.485C496.641 320.557 496.686 320.629 496.724 320.705L496.837 320.921C496.875 320.993 496.916 321.066 496.95 321.138L497.067 321.354L497.181 321.571C497.218 321.643 497.26 321.715 497.294 321.787L497.411 322.004L497.524 322.22C497.562 322.292 497.603 322.365 497.638 322.44C497.672 322.516 497.717 322.581 497.754 322.657C497.792 322.732 497.83 322.798 497.868 322.873C497.906 322.949 497.947 323.018 497.981 323.09C498.016 323.162 498.06 323.234 498.098 323.306L498.212 323.523C498.249 323.595 498.291 323.667 498.325 323.739C498.359 323.811 498.404 323.884 498.442 323.956L498.555 324.172C498.593 324.244 498.634 324.317 498.669 324.392L498.785 324.605L498.899 324.825C498.937 324.897 498.978 324.969 499.012 325.042C499.047 325.114 499.091 325.186 499.129 325.258L499.242 325.475C499.28 325.547 499.322 325.619 499.356 325.691C499.39 325.763 499.435 325.835 499.473 325.908L499.586 326.124C499.624 326.196 499.665 326.268 499.7 326.341C499.734 326.413 499.779 326.485 499.816 326.561C499.854 326.636 499.892 326.701 499.93 326.777C499.968 326.853 500.009 326.918 500.043 326.994C500.078 327.069 500.122 327.138 500.16 327.21L500.273 327.427C500.311 327.499 500.352 327.571 500.387 327.643C500.421 327.715 500.466 327.787 500.504 327.86C501.435 329.623 501.713 331.66 501.287 333.609L450.279 585.335C448.815 592.552 442.086 598.019 435.275 597.483L308.623 587.469C304.904 587.177 302.093 585.091 300.702 582.064C300.664 581.981 300.622 581.916 300.588 581.84Z" fill="url(#paint1_linear_3_131)"/>
<path fill-rule="evenodd" clip-rule="evenodd" d="M377.652 309.124L487.875 314.32C493.792 314.598 497.699 319.238 496.593 324.712L445.581 576.438C444.117 583.655 437.392 589.122 430.578 588.583L303.925 578.572C297.32 578.05 293.581 571.868 295.557 564.827L364.511 318.341C366.012 312.963 371.889 308.853 377.652 309.124Z" fill="url(#paint2_linear_3_131)"/>
<path fill-rule="evenodd" clip-rule="evenodd" d="M380.109 313.186L483.445 318.104C488.991 318.365 492.61 322.863 491.521 328.172L441.643 571.298C440.217 578.243 433.897 583.507 427.553 583.009L309.358 573.731C303.172 573.246 299.736 567.311 301.612 560.514L367.707 322.121C369.157 316.911 374.7 312.915 380.109 313.186Z" fill="url(#paint3_linear_3_131)" stroke="#95A1B5" stroke-width="0.5"/>
<path opacity="0.42" fill-rule="evenodd" clip-rule="evenodd" d="M303.526 571.077C323.695 562.143 342.843 550.524 359.105 535.338C396.02 500.816 425.612 458.286 446.746 417.932C464.517 384.011 472.668 350.506 483.62 318.217C489.043 318.584 492.555 323.028 491.486 328.268L441.592 571.394C440.169 578.339 433.849 583.6 427.502 583.102L309.31 573.823C307.101 573.685 305.03 572.702 303.526 571.077Z" fill="url(#paint4_linear_3_131)"/>
<g opacity="0.64">
<path opacity="0.64" fill-rule="evenodd" clip-rule="evenodd" d="M366.81 572.51L371.992 572.916C372.842 572.923 373.584 572.339 373.775 571.51L375.178 565.648C375.377 564.816 374.906 564.095 374.126 564.036L368.971 563.638C368.126 563.631 367.389 564.21 367.195 565.033L365.768 570.875C365.555 571.723 366.026 572.452 366.81 572.51Z" fill="white"/>
<path opacity="0.64" fill-rule="evenodd" clip-rule="evenodd" d="M406.484 575.05L403.976 566.868L397.944 574.387L406.484 575.05Z" fill="white"/>
<path opacity="0.64" fill-rule="evenodd" clip-rule="evenodd" d="M331.871 569.868L340.314 565.937L334.208 560.902L331.871 569.868Z" fill="white"/>
</g>
<path fill-rule="evenodd" clip-rule="evenodd" d="M376.583 589.256L375.978 587.092C375.852 586.642 375.458 586.319 374.992 586.284L359.803 585.174C359.443 585.147 359.093 585.297 358.864 585.577C358.636 585.856 358.558 586.229 358.655 586.576L359.218 588.593C359.343 589.04 359.732 589.362 360.194 589.401L375.425 590.659C375.787 590.689 376.14 590.54 376.371 590.261C376.602 589.981 376.681 589.606 376.583 589.256Z" fill="#131435"/>
<path fill-rule="evenodd" clip-rule="evenodd" d="M392.549 538.211C392.68 538.315 392.802 538.43 392.913 538.555L393.913 539.61L393.955 539.655L393.9 539.699L390.632 542.345L390.663 542.211C391.858 543.93 393.336 546.019 395.017 548.418H394.807L397.989 545.981L398.089 545.902L398.178 545.961C398.889 546.423 399.528 546.987 400.075 547.634C400.695 548.307 401.059 549.175 401.106 550.088C401.101 550.342 401.058 550.595 400.979 550.837L400.855 551.212L400.649 551.555C400.509 551.791 400.341 552.01 400.147 552.205C399.967 552.413 399.768 552.604 399.553 552.775C398.702 553.498 397.658 553.954 396.549 554.088C395.53 554.209 394.499 553.995 393.611 553.48C393.204 553.245 392.839 552.945 392.529 552.593C392.219 552.249 391.989 551.868 391.728 551.51L388.814 547.363L386.171 543.61L385.563 542.744C385.35 542.47 385.17 542.171 385.027 541.854C384.751 541.191 384.767 540.443 385.071 539.792C385.655 538.595 386.688 537.677 387.944 537.235C388.835 536.904 389.805 536.849 390.728 537.077C391.261 537.211 391.758 537.462 392.181 537.813C392.285 537.904 392.382 538.001 392.474 538.105C392.535 538.174 392.566 538.211 392.559 538.215C392.03 537.716 391.382 537.361 390.676 537.184C389.78 536.986 388.845 537.058 387.989 537.39C386.806 537.823 385.839 538.701 385.295 539.837C385.025 540.431 385.018 541.111 385.278 541.71C385.419 542.013 385.596 542.299 385.803 542.562L386.418 543.421C387.257 544.589 388.137 545.827 389.085 547.15L392.02 551.273C392.278 551.617 392.518 552.012 392.803 552.332C393.101 552.663 393.449 552.945 393.834 553.167C394.667 553.645 395.63 553.843 396.584 553.73C397.613 553.607 398.582 553.183 399.371 552.511C399.572 552.353 399.758 552.176 399.924 551.981C400.099 551.807 400.251 551.611 400.374 551.397L400.56 551.088L400.67 550.744C400.739 550.532 400.777 550.311 400.783 550.088C400.739 549.238 400.402 548.43 399.828 547.803C399.301 547.174 398.685 546.626 397.999 546.177H398.189L394.996 548.583L394.865 548.682L394.786 548.569C393.137 546.163 391.693 544.026 390.508 542.308L390.46 542.236L390.539 542.17L393.855 539.579V539.669L392.907 538.572C392.779 538.461 392.659 538.34 392.549 538.211Z" fill="white"/>
<path fill-rule="evenodd" clip-rule="evenodd" d="M400.113 560.122C400.48 560.125 400.846 560.092 401.206 560.022C402.277 559.774 403.216 559.133 403.838 558.225C404.041 557.926 404.203 557.602 404.319 557.26C404.433 556.916 404.512 556.517 404.618 556.122C404.818 555.32 405.034 554.454 405.268 553.524L406.883 547.208L408.824 539.534L409.361 537.435C409.529 536.713 409.79 535.998 409.68 535.321C409.606 534.642 409.273 534.018 408.749 533.579C408.169 533.124 407.451 532.882 406.714 532.892L386.068 531.232C385.148 531.175 384.236 531.437 383.487 531.974C382.739 532.491 382.192 533.249 381.937 534.122C381.502 535.854 381.074 537.558 380.652 539.235C379.81 542.586 378.996 545.823 378.222 548.906C377.835 550.445 377.456 551.946 377.085 553.407C376.923 554.139 376.648 554.861 376.686 555.524C376.709 556.17 376.959 556.786 377.391 557.266C377.823 557.73 378.397 558.037 379.023 558.139C379.669 558.225 380.353 558.266 380.999 558.328L384.735 558.672L396.006 559.703L399.068 560.002L399.862 560.088L400.13 560.129C400.038 560.137 399.944 560.137 399.852 560.129L399.051 560.077L395.958 559.84L384.659 558.902L380.917 558.586C380.264 558.524 379.611 558.49 378.92 558.4C378.242 558.294 377.618 557.966 377.147 557.466C376.674 556.95 376.4 556.282 376.374 555.583C376.361 555.208 376.405 554.834 376.504 554.473C376.593 554.129 376.683 553.751 376.772 553.383C377.136 551.926 377.511 550.421 377.892 548.881C378.662 545.789 379.466 542.565 380.298 539.211C380.717 537.53 381.145 535.823 381.58 534.091C381.861 533.127 382.468 532.292 383.298 531.727C384.12 531.132 385.124 530.841 386.137 530.905L406.78 532.593C407.571 532.587 408.341 532.851 408.962 533.342C409.533 533.82 409.895 534.502 409.972 535.242C410.017 535.621 409.995 536.005 409.907 536.376C409.825 536.747 409.725 537.098 409.636 537.455C409.45 538.17 409.269 538.871 409.093 539.558C408.378 542.308 407.718 544.881 407.106 547.229C406.495 549.576 405.945 551.696 405.46 553.552L404.773 556.15C404.663 556.548 404.584 556.923 404.457 557.297C404.332 557.652 404.16 557.989 403.945 558.297C403.291 559.226 402.308 559.872 401.195 560.101C400.839 560.176 400.472 560.183 400.113 560.122Z" fill="white"/>
<path fill-rule="evenodd" clip-rule="evenodd" d="M366.847 556.937C367.214 556.94 367.58 556.906 367.94 556.837C369.005 556.595 369.939 555.959 370.555 555.057C370.758 554.76 370.916 554.436 371.026 554.095C371.14 553.751 371.212 553.359 371.315 552.964C371.507 552.171 371.717 551.312 371.944 550.387L373.483 544.102L375.36 536.486C375.528 535.799 375.703 535.112 375.875 534.4C376.047 533.689 376.294 532.974 376.178 532.301C376.094 531.627 375.755 531.012 375.229 530.583C374.649 530.129 373.931 529.887 373.195 529.895L352.548 528.232C351.632 528.174 350.723 528.435 349.978 528.971C349.234 529.48 348.692 530.234 348.445 531.101C348.026 532.82 347.612 534.512 347.204 536.177C346.393 539.504 345.606 542.706 344.861 545.775L343.768 550.242C343.61 550.971 343.342 551.686 343.386 552.346C343.416 552.985 343.671 553.593 344.105 554.064C344.54 554.526 345.117 554.83 345.744 554.93C346.39 555.016 347.074 555.057 347.716 555.122L351.455 555.466L362.727 556.497L365.786 556.796L366.579 556.882C366.67 556.888 366.759 556.902 366.847 556.923C366.756 556.931 366.664 556.931 366.573 556.923L365.772 556.868L362.696 556.631L351.397 555.696L347.655 555.377C347.002 555.315 346.349 555.28 345.658 555.194C344.979 555.085 344.355 554.758 343.878 554.263C343.402 553.751 343.124 553.088 343.091 552.39C343.075 552.02 343.115 551.649 343.211 551.291C343.297 550.947 343.383 550.572 343.472 550.212C343.818 548.761 344.178 547.272 344.551 545.744C345.29 542.686 346.07 539.473 346.874 536.146C347.28 534.481 347.692 532.786 348.112 531.064C348.383 530.109 348.979 529.278 349.796 528.713C350.618 528.125 351.618 527.839 352.627 527.902L373.267 529.589C374.059 529.586 374.83 529.849 375.456 530.335C376.03 530.809 376.4 531.486 376.487 532.225C376.534 532.6 376.515 532.98 376.432 533.349C376.349 533.717 376.253 534.067 376.167 534.421L375.642 536.51C374.954 539.26 374.312 541.792 373.724 544.122L372.136 550.404C371.899 551.325 371.679 552.188 371.48 552.978C371.37 553.377 371.298 553.751 371.174 554.119C371.052 554.472 370.882 554.808 370.669 555.115C370.025 556.038 369.05 556.678 367.947 556.902C367.586 556.981 367.213 556.993 366.847 556.937Z" fill="white"/>
<path fill-rule="evenodd" clip-rule="evenodd" d="M352.438 535.335C352.542 535.328 352.647 535.328 352.751 535.335L353.679 535.394L357.222 535.645L369.769 536.61H369.923L369.885 536.761C368.992 540.383 367.988 544.452 366.933 548.737C366.978 548.71 366.535 549.023 366.72 548.889H366.648H366.573H366.421L366.119 548.861L365.521 548.81L364.329 548.706L361.985 548.504L357.49 548.115L349.493 547.404H349.356L349.39 547.27C350.304 543.655 351.057 540.669 351.593 538.552C351.854 537.545 352.06 536.744 352.208 536.167L352.376 535.552C352.392 535.483 352.412 535.415 352.438 535.349C352.432 535.428 352.419 535.506 352.397 535.583C352.363 535.748 352.314 535.961 352.256 536.225L351.703 538.631C351.208 540.73 350.507 543.693 349.662 547.28L349.558 547.136L357.565 547.799L362.064 548.177L364.408 548.377L365.6 548.48L366.201 548.531L366.504 548.555H366.655H366.731H366.799C366.988 548.421 366.552 548.737 366.597 548.703C367.665 544.418 368.659 540.349 369.58 536.727L369.696 536.889L357.284 535.785L353.727 535.442L352.775 535.346C352.663 535.35 352.55 535.347 352.438 535.335Z" fill="white"/>
<path fill-rule="evenodd" clip-rule="evenodd" d="M359.208 543.693C359.269 543.634 359.335 543.582 359.407 543.538L359.981 543.139L362.133 541.682L369.659 536.648L369.696 536.916L361.047 536.229L352.404 535.497L352.569 535.249C354.524 537.706 356.177 539.789 357.38 541.294L358.737 543.047L359.098 543.524C359.144 543.581 359.184 543.642 359.218 543.706C359.035 543.53 358.865 543.341 358.71 543.139L357.301 541.466C356.064 539.967 354.349 537.895 352.321 535.452L352.088 535.17L352.486 535.201L361.139 535.888L369.779 536.62L370.177 536.651L369.834 536.885L362.15 541.857L359.988 543.232C359.459 543.548 359.201 543.706 359.208 543.693Z" fill="white"/>
<path fill-rule="evenodd" clip-rule="evenodd" d="M357.332 541.366C357.383 541.431 355.679 542.809 353.521 544.438C351.363 546.067 349.579 547.332 349.524 547.267C349.469 547.201 351.177 545.823 353.332 544.194C355.486 542.565 357.28 541.301 357.332 541.366Z" fill="white"/>
<path fill-rule="evenodd" clip-rule="evenodd" d="M366.765 548.744C366.679 548.803 365.576 547.284 364.298 545.359C363.019 543.435 362.043 541.827 362.126 541.772C362.208 541.717 363.315 543.229 364.597 545.157C365.878 547.084 366.847 548.689 366.765 548.744Z" fill="white"/>
<path fill-rule="evenodd" clip-rule="evenodd" d="M333.585 553.737C333.951 553.738 334.316 553.705 334.675 553.638C335.734 553.401 336.663 552.769 337.273 551.871C337.471 551.577 337.627 551.257 337.737 550.919C337.843 550.576 337.915 550.187 338.015 549.796L338.62 547.236C339.056 545.397 339.555 543.308 340.101 540.998C340.648 538.689 341.263 536.153 341.912 533.438L342.407 531.376C342.565 530.668 342.813 529.964 342.692 529.314C342.605 528.639 342.26 528.024 341.73 527.596C341.146 527.145 340.427 526.903 339.689 526.909L319.042 525.246C318.13 525.183 317.225 525.441 316.482 525.974C315.743 526.479 315.208 527.229 314.97 528.091C314.569 529.796 314.171 531.474 313.777 533.125C312.994 536.431 312.238 539.62 311.52 542.658C311.16 544.177 310.808 545.656 310.465 547.095C310.313 547.82 310.052 548.528 310.121 549.181C310.154 549.822 310.413 550.431 310.853 550.899C311.294 551.357 311.872 551.659 312.499 551.761C313.145 551.847 313.829 551.888 314.472 551.954L318.207 552.297L329.479 553.328L332.541 553.627L333.335 553.713C333.425 553.718 333.515 553.732 333.603 553.754C333.511 553.763 333.419 553.763 333.328 553.754L332.524 553.699L329.451 553.462L318.156 552.524L314.413 552.208C313.76 552.146 313.107 552.112 312.417 552.022C311.737 551.916 311.11 551.591 310.63 551.098C310.15 550.593 309.865 549.934 309.825 549.239C309.806 548.87 309.843 548.5 309.935 548.143C310.018 547.799 310.1 547.431 310.186 547.074C310.523 545.635 310.867 544.155 311.217 542.634C311.932 539.596 312.681 536.407 313.454 533.101C313.846 531.447 314.244 529.766 314.647 528.057C314.911 527.109 315.5 526.284 316.31 525.727C317.13 525.141 318.127 524.858 319.132 524.926L339.771 526.61C340.564 526.609 341.336 526.871 341.964 527.356C342.537 527.825 342.906 528.497 342.995 529.232C343.045 529.603 343.03 529.98 342.95 530.345C342.874 530.713 342.778 531.06 342.696 531.411L342.191 533.473C341.527 536.191 340.905 538.72 340.342 541.033C339.778 543.345 339.259 545.428 338.806 547.266C338.576 548.183 338.366 549.035 338.173 549.823C338.07 550.218 337.998 550.589 337.878 550.957C337.76 551.307 337.593 551.639 337.383 551.943C336.744 552.862 335.775 553.497 334.678 553.717C334.318 553.791 333.948 553.798 333.585 553.737Z" fill="white"/>
<path fill-rule="evenodd" clip-rule="evenodd" d="M332.768 547.208C332.776 547.129 332.789 547.051 332.809 546.974C332.847 546.803 332.895 546.586 332.95 546.322C333.084 545.727 333.273 544.902 333.506 543.868L335.527 535.16L335.634 535.304L319.434 533.985C319.386 534.016 319.822 533.706 319.637 533.837V533.858V533.882V533.933L319.613 534.033L319.565 534.236L319.468 534.641L319.279 535.442C319.152 535.974 319.025 536.5 318.901 537.026C318.65 538.057 318.406 539.088 318.166 540.119L316.791 545.84L316.674 545.682L328.273 546.754L331.585 547.081L332.469 547.174C332.574 547.181 332.678 547.196 332.781 547.218C332.686 547.227 332.591 547.227 332.496 547.218L331.63 547.16L328.335 546.916L316.606 545.981H316.454L316.489 545.837C316.908 544.04 317.362 542.122 317.833 540.112C318.062 539.104 318.304 538.073 318.561 537.019C318.685 536.493 318.809 535.967 318.936 535.435L319.125 534.631L319.221 534.229L319.269 534.026L319.293 533.926V533.875V533.851V533.806L319.503 533.658L335.692 535.033H335.833L335.799 535.167C334.895 538.799 334.142 541.813 333.61 543.95C333.352 544.981 333.142 545.782 332.994 546.356L332.826 546.981C332.817 547.059 332.798 547.136 332.768 547.208Z" fill="white"/>
<path fill-rule="evenodd" clip-rule="evenodd" d="M325.455 531.964C325.934 531.936 326.414 531.946 326.891 531.995C327.798 532.043 329.084 532.129 330.613 532.242H330.699L330.723 532.318C330.994 533.063 331.286 533.881 331.596 534.723L331.689 534.978L331.396 534.953L329.86 534.83C327.307 534.617 324.994 534.407 323.307 534.235L323.097 534.215L323.245 534.053C324.52 532.679 325.386 531.854 325.455 531.94C325.455 531.94 325.245 532.136 324.895 532.527L323.427 534.187L323.365 534.005C325.063 534.115 327.383 534.29 329.939 534.503L331.472 534.634L331.273 534.864C330.974 533.998 330.692 533.177 330.431 532.424L330.544 532.507C329.022 532.366 327.747 532.242 326.853 532.142C326.383 532.123 325.915 532.063 325.455 531.964Z" fill="white"/>
<path fill-rule="evenodd" clip-rule="evenodd" d="M329.194 541.871C329.163 541.871 329.355 541.569 329.537 541.012C329.776 540.266 329.74 539.46 329.438 538.737C328.954 537.687 327.92 536.999 326.764 536.961C325.21 536.894 323.739 537.663 322.908 538.978C322.039 540.352 322.248 541.964 323.104 542.851C323.938 543.693 325.149 544.043 326.304 543.775C327.154 543.599 327.937 543.185 328.561 542.583C329.001 542.153 329.176 541.854 329.204 541.871C329.231 541.889 329.176 541.95 329.091 542.088C328.966 542.294 328.82 542.487 328.654 542.662C328.031 543.331 327.22 543.797 326.328 543.998C325.086 544.32 323.766 543.965 322.853 543.064C322.362 542.548 322.067 541.875 322.022 541.163C321.967 540.347 322.175 539.534 322.616 538.844C323.084 538.106 323.746 537.511 324.53 537.126C325.241 536.764 326.037 536.603 326.833 536.662C328.078 536.714 329.182 537.48 329.668 538.627C330.037 539.635 329.922 540.757 329.355 541.669C329.256 541.806 329.218 541.875 329.194 541.871Z" fill="white"/>
<path fill-rule="evenodd" clip-rule="evenodd" d="M433.375 563.311C433.742 563.31 434.107 563.275 434.468 563.208C435.546 562.954 436.492 562.309 437.121 561.397C437.327 561.096 437.492 560.768 437.609 560.421C437.729 560.078 437.808 559.676 437.918 559.277C438.124 558.469 438.351 557.597 438.605 556.658C439.093 554.782 439.636 552.645 440.258 550.284C440.88 547.923 441.547 545.335 442.272 542.559C442.451 541.871 442.636 541.157 442.822 540.442C443.007 539.727 443.269 538.995 443.166 538.315C443.099 537.633 442.769 537.004 442.245 536.562C441.668 536.107 440.952 535.865 440.217 535.875L419.567 534.218C418.644 534.159 417.728 534.424 416.979 534.968C416.224 535.489 415.669 536.253 415.409 537.133C414.951 538.876 414.506 540.594 414.075 542.287L411.56 552.026L410.385 556.562C410.216 557.301 409.934 558.026 409.969 558.693C409.982 559.341 410.225 559.964 410.656 560.449C411.086 560.915 411.659 561.223 412.285 561.325C412.928 561.411 413.615 561.452 414.258 561.518L417.993 561.861L429.268 562.892L432.327 563.195L433.121 563.281C433.211 563.285 433.301 563.299 433.389 563.322C433.389 563.322 433.292 563.322 433.11 563.322L432.31 563.267L429.217 563.03L417.918 562.095L414.175 561.779C413.519 561.717 412.866 561.683 412.175 561.593C411.498 561.487 410.876 561.157 410.409 560.655C409.939 560.132 409.67 559.458 409.653 558.755C409.644 558.377 409.691 558.001 409.794 557.638C409.886 557.294 409.979 556.909 410.072 556.542C410.45 555.071 410.837 553.559 411.233 552.006C412.027 548.913 412.862 545.645 413.728 542.267L415.058 537.112C415.673 535.123 417.556 533.802 419.636 533.902L440.279 535.586C441.07 535.582 441.839 535.849 442.458 536.342C443.027 536.825 443.384 537.513 443.451 538.256C443.493 538.637 443.469 539.022 443.379 539.394C443.289 539.768 443.19 540.122 443.093 540.483C442.903 541.202 442.717 541.909 442.533 542.603L440.471 550.325L438.753 556.696C438.502 557.634 438.265 558.507 438.066 559.311C437.949 559.713 437.87 560.091 437.722 560.466C437.593 560.824 437.417 561.164 437.2 561.476C436.547 562.409 435.564 563.059 434.451 563.294C434.096 563.366 433.732 563.371 433.375 563.311Z" fill="white"/>
<path fill-rule="evenodd" clip-rule="evenodd" d="M435.835 549.418C435.964 548.675 436.04 547.924 436.062 547.17C436.106 543.787 433.837 540.81 430.564 539.954C428.956 539.53 427.265 539.53 425.657 539.954C424.738 540.178 423.854 540.525 423.028 540.985C422.151 541.455 421.342 542.041 420.622 542.727C419.111 544.115 418.023 545.902 417.485 547.882C416.99 549.688 417.131 551.61 417.883 553.325C418.226 554.096 418.711 554.796 419.313 555.387C419.885 555.974 420.556 556.456 421.296 556.81C422.751 557.503 424.369 557.784 425.973 557.621C427.477 557.477 428.934 557.021 430.251 556.28C432.224 555.202 433.847 553.582 434.928 551.61C435.285 550.902 435.597 550.172 435.863 549.425C435.857 549.475 435.847 549.524 435.832 549.572C435.801 549.693 435.76 549.834 435.712 550.009C435.648 550.243 435.567 550.473 435.471 550.696C435.349 551.019 435.207 551.333 435.045 551.638C434.606 552.504 434.051 553.306 433.396 554.023C432.52 554.997 431.49 555.821 430.347 556.462C428.998 557.237 427.5 557.719 425.952 557.878C424.295 558.058 422.621 557.777 421.113 557.067C420.345 556.707 419.646 556.213 419.052 555.607C418.425 554.995 417.92 554.269 417.564 553.469C416.778 551.694 416.63 549.702 417.144 547.83C418.026 544.772 420.107 542.202 422.914 540.703C423.77 540.231 424.686 539.875 425.636 539.644C427.295 539.213 429.039 539.22 430.694 539.665C432.026 540.033 433.234 540.751 434.193 541.744C434.96 542.551 435.531 543.523 435.863 544.586C436.123 545.411 436.239 546.275 436.207 547.139C436.207 547.464 436.182 547.788 436.131 548.108C436.107 548.35 436.064 548.589 436 548.823C435.959 548.998 435.921 549.139 435.894 549.26C435.879 549.314 435.86 549.367 435.835 549.418Z" fill="white"/>
<path fill-rule="evenodd" clip-rule="evenodd" d="M425.474 544.063C425.635 544.152 425.788 544.255 425.931 544.369L427.258 545.311C428.395 546.125 430.038 547.304 431.925 548.716L432.134 548.871L431.856 548.988L427.65 550.747L423.354 552.524L423.083 552.637L423.155 552.366C423.804 549.895 424.399 547.785 424.815 546.325C425.007 545.637 425.167 545.074 425.296 544.634C425.34 544.439 425.4 544.249 425.474 544.063C425.474 544.063 425.426 544.311 425.33 544.723C425.234 545.136 425.086 545.754 424.918 546.472C424.574 547.957 424.079 550.005 423.471 552.393L423.268 552.239L427.557 550.445L431.77 548.703L431.698 548.974C429.887 547.6 428.361 546.38 427.258 545.5L425.955 544.469C425.65 544.218 425.478 544.077 425.474 544.063Z" fill="white"/>
<path fill-rule="evenodd" clip-rule="evenodd" d="M402.67 440.967L507.287 463.599L475.799 513.002L371.181 490.369L402.67 440.967Z" fill="white"/>
<path fill-rule="evenodd" clip-rule="evenodd" d="M372.36 488.52L401.491 442.816L502.195 464.599L473.063 510.304L372.36 488.52Z" fill="url(#paint5_radial_3_131)"/>
<path fill-rule="evenodd" clip-rule="evenodd" d="M389.037 462.355L414.732 466.469L457.733 454.981L401.491 442.816L389.037 462.355Z" fill="url(#paint6_radial_3_131)"/>
<path fill-rule="evenodd" clip-rule="evenodd" d="M386.762 465.926L410.725 469.761L402.793 483.019L378.442 480.056L386.762 465.926Z" fill="url(#paint7_radial_3_131)"/>
<path fill-rule="evenodd" clip-rule="evenodd" d="M377.267 489.582L381.264 482.624L419.883 486.995L410.068 496.679L377.267 489.582Z" fill="url(#paint8_radial_3_131)"/>
<path fill-rule="evenodd" clip-rule="evenodd" d="M418.46 498.493L428.653 488.386L461.324 492.359L448.228 504.933L418.46 498.493Z" fill="url(#paint9_radial_3_131)"/>
<path fill-rule="evenodd" clip-rule="evenodd" d="M456.619 506.747L463.224 499.675L478.108 502.39L473.063 510.304L456.619 506.747Z" fill="url(#paint10_radial_3_131)"/>
<path fill-rule="evenodd" clip-rule="evenodd" d="M479.321 500.486L465.678 498.005L473.785 488.847L485.283 491.132L479.321 500.486Z" fill="url(#paint11_radial_3_131)"/>
<path fill-rule="evenodd" clip-rule="evenodd" d="M411.653 484.094L464.431 489.922L475.503 476.72L419.12 470.97L411.653 484.094Z" fill="url(#paint12_radial_3_131)"/>
<path fill-rule="evenodd" clip-rule="evenodd" d="M424.031 467.599L465.73 456.713L492.029 462.4L457.211 471.637L424.031 467.599Z" fill="url(#paint13_radial_3_131)"/>
<path fill-rule="evenodd" clip-rule="evenodd" d="M466.994 472.826L494.796 476.207L502.195 464.599L466.994 472.826Z" fill="url(#paint14_radial_3_131)"/>
<path fill-rule="evenodd" clip-rule="evenodd" d="M486.71 488.895L476.469 486.569L481.197 477.41L493.277 478.589L486.71 488.895Z" fill="url(#paint15_radial_3_131)"/>
<path fill-rule="evenodd" clip-rule="evenodd" d="M453.506 460.737L371.181 490.335L396.783 445.792L453.506 460.737Z" fill="#2F3E8B"/>
<path fill-rule="evenodd" clip-rule="evenodd" d="M403.35 354.094L474.991 372.97L453.506 460.737L381.923 441.878L403.35 354.094Z" fill="white"/>
<path fill-rule="evenodd" clip-rule="evenodd" d="M382.724 438.592L402.549 357.379L474.039 376.214L454.214 457.427L382.724 438.592Z" fill="url(#paint16_radial_3_131)"/>
<path fill-rule="evenodd" clip-rule="evenodd" d="M381.924 441.878L306.533 426.905L328.053 338.757L403.35 354.094L381.924 441.878Z" fill="white"/>
<path fill-rule="evenodd" clip-rule="evenodd" d="M382.724 438.592L310.331 423.465L330.094 342.492L402.549 357.379L382.724 438.592Z" fill="url(#paint17_radial_3_131)"/>
<path fill-rule="evenodd" clip-rule="evenodd" d="M391.762 413.358C391.769 413.678 391.713 413.995 391.597 414.293C391.567 414.364 391.53 414.432 391.487 414.496L391.762 413.358Z" fill="#297F98"/>
<path fill-rule="evenodd" clip-rule="evenodd" d="M330.094 342.492L323.702 368.688L361.036 348.849L330.094 342.492Z" fill="url(#paint18_radial_3_131)"/>
<path fill-rule="evenodd" clip-rule="evenodd" d="M366.394 349.949L345.758 362.396L359.679 381.166L396.065 356.045L366.394 349.949Z" fill="url(#paint19_radial_3_131)"/>
<path fill-rule="evenodd" clip-rule="evenodd" d="M402.549 357.379L375.975 376.228L394.075 392.097L402.549 357.379Z" fill="url(#paint20_radial_3_131)"/>
<path fill-rule="evenodd" clip-rule="evenodd" d="M392.525 398.441L372.693 379.523L354.95 390.314L386.882 423.431L392.525 398.441Z" fill="url(#paint21_radial_3_131)"/>
<path fill-rule="evenodd" clip-rule="evenodd" d="M342.118 364.695L355.277 382.544L334.915 396.063L323.462 374.372L342.118 364.695Z" fill="url(#paint22_radial_3_131)"/>
<path fill-rule="evenodd" clip-rule="evenodd" d="M321.046 379.571L331.084 397.441L313.585 410.132L321.046 379.571Z" fill="url(#paint23_radial_3_131)"/>
<path fill-rule="evenodd" clip-rule="evenodd" d="M351.428 391.984L324.953 408.719L340.28 429.723L362.617 434.393L368.755 410.527L351.428 391.984Z" fill="url(#paint24_radial_3_131)"/>
<path fill-rule="evenodd" clip-rule="evenodd" d="M371.569 413.788L366.253 435.152L382.724 438.592L385.535 427.08L371.569 413.788Z" fill="url(#paint25_radial_3_131)"/>
<path fill-rule="evenodd" clip-rule="evenodd" d="M333.269 428.259L322.001 411.74L311.719 417.778L310.331 423.465L333.269 428.259Z" fill="url(#paint26_radial_3_131)"/>
<path fill-rule="evenodd" clip-rule="evenodd" d="M394.075 392.097L412.292 394.499L442.478 367.898L402.549 357.379L394.075 392.097Z" fill="url(#paint27_radial_3_131)"/>
<path fill-rule="evenodd" clip-rule="evenodd" d="M392.525 398.441L409.515 400.678L404.13 424.145L386.882 423.431L392.525 398.441Z" fill="url(#paint28_radial_3_131)"/>
<path fill-rule="evenodd" clip-rule="evenodd" d="M386.209 439.51L388.917 427.218L416.268 427.805L409.495 445.647L386.209 439.51Z" fill="url(#paint29_radial_3_131)"/>
<path fill-rule="evenodd" clip-rule="evenodd" d="M415.454 447.214L422.488 428.606L445.626 429.561L436.585 452.785L415.454 447.214Z" fill="url(#paint30_radial_3_131)"/>
<path fill-rule="evenodd" clip-rule="evenodd" d="M442.544 454.352L447.09 441.42L457.647 443.365L454.214 457.427L442.544 454.352Z" fill="url(#paint31_radial_3_131)"/>
<path fill-rule="evenodd" clip-rule="evenodd" d="M458.475 439.98L448.798 438.211L454.372 421.544L462.53 423.362L458.475 439.98Z" fill="url(#paint32_radial_3_131)"/>
<path fill-rule="evenodd" clip-rule="evenodd" d="M410.405 424.403L447.781 424.963L455.386 401.039L415.464 401.235L410.405 424.403Z" fill="url(#paint33_radial_3_131)"/>
<path fill-rule="evenodd" clip-rule="evenodd" d="M418.88 394.771L448.155 369.396L466.823 374.314L442.382 395.74L418.88 394.771Z" fill="url(#paint34_radial_3_131)"/>
<path fill-rule="evenodd" clip-rule="evenodd" d="M449.31 396.028L469.005 396.839L474.039 376.214L449.31 396.028Z" fill="url(#paint35_radial_3_131)"/>
<path fill-rule="evenodd" clip-rule="evenodd" d="M463.503 419.383L456.231 417.286L459.42 401.204L467.97 401.073L463.503 419.383Z" fill="url(#paint36_radial_3_131)"/>
<path opacity="0.26" fill-rule="evenodd" clip-rule="evenodd" d="M398.151 413.269L316.479 386.17L328.053 338.757L398.395 407.448L398.151 413.269Z" fill="url(#paint37_linear_3_131)"/>
<path opacity="0.14" fill-rule="evenodd" clip-rule="evenodd" d="M371.181 490.335L383.436 493.019L458.413 464.046L450.743 461.73L371.181 490.335Z" fill="#030303"/>
<path fill-rule="evenodd" clip-rule="evenodd" d="M410.536 364.025C407.237 365.348 403.695 365.954 400.144 365.805C386.353 365.234 375.642 353.688 376.219 340.014C376.796 326.341 388.436 315.719 402.223 316.286C407.513 316.497 412.599 318.381 416.749 321.667C411.271 306.722 393.144 305.492 380.174 306.712C373.524 310.515 368.236 316.31 365.054 323.279C357.287 340.406 361.552 357.516 372.239 368.568C372.392 368.726 372.523 368.904 372.628 369.097L396.137 412.032C396.376 412.465 396.743 412.813 397.188 413.029C389.432 399.64 401.652 384.413 410.536 364.025Z" fill="#1F2055"/>
<path fill-rule="evenodd" clip-rule="evenodd" d="M400.247 412.2L427.282 371.345C427.399 371.168 427.539 371.007 427.698 370.867C435.893 363.734 440.79 353.543 441.238 342.688C442.372 315.678 416.065 293.839 386.889 303.667C384.557 304.454 382.308 305.469 380.174 306.698C393.144 305.478 411.271 306.698 416.749 321.654C423.696 327.12 427.189 335.885 425.906 344.631C424.623 353.378 418.76 360.77 410.536 364.011C401.653 384.4 389.432 399.627 397.199 413.015C398.276 413.541 399.576 413.193 400.247 412.2Z" fill="#2F3E8B"/>
<path opacity="0.42" fill-rule="evenodd" clip-rule="evenodd" d="M382.14 523.555C382.14 523.555 411.608 504.28 414.945 514.472C418.282 524.665 403.604 542.476 406.862 547.194C410.12 551.913 382.59 555.442 376.621 560.153C370.652 564.865 345.27 558.724 345.266 554.112C345.263 549.5 382.14 523.555 382.14 523.555Z" fill="url(#paint38_linear_3_131)"/>
<path fill-rule="evenodd" clip-rule="evenodd" d="M406.556 530.59C392.267 535.895 376.387 540.899 367.036 541.112H366.765C355.081 541.112 332.926 525.899 320.692 516.785C304.141 504.452 288.426 490.462 285.43 486.201C279.931 478.338 275.708 468.582 275.667 468.486C275.609 468.317 275.692 468.132 275.856 468.061C276.02 467.99 276.211 468.057 276.295 468.215C276.337 468.314 280.519 478.005 285.993 485.806C291.571 493.758 346.692 540.445 366.751 540.445H367.012C376.428 540.249 392.532 535.115 406.914 529.748C408.646 525.246 409.587 520.48 409.697 515.658C398.357 518.201 386.817 520.126 378.425 519.923C355.057 519.369 326.716 490.177 318.097 469.606C309.478 449.036 288.543 439.953 288.543 439.953C232.294 424.754 257.223 492.82 269.594 506.301C281.966 519.782 330.874 555.92 363.122 557.861C368.298 558.174 374.167 557.287 380.377 555.579C389.91 551.167 401.182 543.466 406.556 530.59Z" fill="#1F2055"/>
<path fill-rule="evenodd" clip-rule="evenodd" d="M366.748 540.428C346.679 540.428 291.557 493.754 285.99 485.788C280.515 477.988 276.333 468.297 276.292 468.197C276.208 468.039 276.017 467.972 275.853 468.043C275.688 468.114 275.606 468.299 275.663 468.469C275.704 468.565 279.911 478.321 285.426 486.184C288.423 490.452 304.138 504.441 320.688 516.768C332.922 525.881 355.088 541.095 366.762 541.095H367.033C376.398 540.899 392.278 535.878 406.553 530.572C406.673 530.287 406.793 530.002 406.897 529.71C392.515 535.077 376.411 540.211 366.995 540.407L366.748 540.428Z" fill="#0E142D"/>
<path fill-rule="evenodd" clip-rule="evenodd" d="M281.821 468.001C286.323 469.991 299.038 451.049 299.038 451.049C293.244 443.249 284.656 439.781 284.656 439.781C274.443 436.262 224.06 452.757 224.06 452.757C224.06 452.757 219.937 454.451 213.373 457.445L213.105 457.565C217.878 459.304 231.899 464.194 240.394 464.802C250.738 465.544 277.326 466.008 281.821 468.001Z" fill="#1F2055"/>
<path fill-rule="evenodd" clip-rule="evenodd" d="M144.079 600.837C146.973 606.27 148.987 609.552 148.987 609.552L164.863 606.5L163.815 603.621C163.815 603.621 163.09 600.94 162.207 596.59C162.037 596.729 161.837 596.828 161.623 596.878L144.079 600.837Z" fill="#F37878"/>
<path fill-rule="evenodd" clip-rule="evenodd" d="M299.038 451.049C299.038 451.049 286.323 469.991 281.821 468.001C277.32 466.012 250.738 465.544 240.384 464.802C231.889 464.194 217.868 459.304 213.095 457.565C191.582 467.379 144.55 490.754 129.154 513.923C115.285 534.792 129.807 572.088 140.275 593.414C139.811 593.849 139.687 594.536 139.969 595.105L142.437 600.085C142.73 600.682 143.396 600.999 144.045 600.851H144.079L161.623 596.892C162.365 596.715 162.845 595.996 162.726 595.243L161.695 589.16C161.604 588.626 161.22 588.19 160.702 588.033C158.915 576.105 157.767 559.614 161.963 546.919C169.379 524.496 233.507 522.455 249.817 516.335C258.604 513.039 273.185 505.383 285.062 495.837C295.21 487.665 303.351 478.108 304.121 468.689C304.686 462.381 302.874 456.089 299.038 451.049Z" fill="#2F3E8B"/>
<path d="M141.34 592.964L158.715 588.933" stroke="#CAE2F2" stroke-width="2" stroke-linecap="round"/>
<path d="M150.028 587.59C150.028 587.59 129.33 535.139 150.279 519.016C171.228 502.892 250.58 479.72 259.278 465.73" stroke="#CAE2F2" stroke-width="2" stroke-linecap="round"/>
<path fill-rule="evenodd" clip-rule="evenodd" d="M141.76 629.102C146.206 628.734 171.506 624.731 171.506 624.731L164.863 606.518L148.986 609.569C148.986 609.569 142.684 621.253 134.344 621.8C128.577 622.185 123.783 626.497 121.378 629.119C121.384 629.106 137.309 629.473 141.76 629.102Z" fill="#2F3E8B"/>
<path fill-rule="evenodd" clip-rule="evenodd" d="M172.513 627.528L171.482 624.731C171.482 624.731 146.182 628.734 141.735 629.102C137.289 629.47 121.36 629.102 121.353 629.102C120.759 629.74 120.201 630.41 119.68 631.109C136.753 634.15 172.513 627.528 172.513 627.528Z" fill="#C9E1F2"/>
<path d="M145.87 614.164L148.756 616.26" stroke="#CAE2F2" stroke-width="2" stroke-linecap="round"/>
<path d="M144.065 616.26L146.993 618.367" stroke="#CAE2F2" stroke-width="2" stroke-linecap="round"/>
<path d="M142.402 617.882L144.907 619.93" stroke="#CAE2F2" stroke-width="2" stroke-linecap="round"/>
<path fill-rule="evenodd" clip-rule="evenodd" d="M208.758 404.475C211.538 393.355 240.174 381.124 240.174 374.172C240.174 367.221 233.233 348.444 238.556 333.88C239.47 329.155 241.305 325.815 244.054 325.461C232.483 324.389 199.225 323.207 199.225 323.207C199.225 323.207 198.349 323.777 197.015 324.605C201.878 324.262 205.462 324.605 206.823 326.079C206.823 326.079 202.744 340.626 179.022 346.011C155.299 351.396 150.11 357.09 150.292 366.935C150.475 376.781 154.695 392.365 154.695 392.365C154.695 392.365 179.991 423.781 199.163 442.73C199.163 442.73 205.978 415.592 208.758 404.475Z" fill="white"/>
<path fill-rule="evenodd" clip-rule="evenodd" d="M288.175 439.596C288.361 436.815 279.649 389.001 279.649 389.001C279.649 389.001 249.065 375.471 242.398 362.495C238.174 354.286 236.982 342.025 238.556 333.88C233.233 348.444 240.174 367.214 240.174 374.172C240.174 381.131 211.538 393.355 208.758 404.475C205.978 415.595 199.135 442.712 199.135 442.712C206.792 450.273 213.473 455.853 217.174 456.647C230.164 459.427 287.98 442.376 288.175 439.596Z" fill="#C9E2F4"/>
<path fill-rule="evenodd" clip-rule="evenodd" d="M179.011 346.001C202.723 340.626 206.813 326.069 206.813 326.069C205.438 324.605 201.868 324.241 197.005 324.595C194.28 326.279 189.627 329.025 186.517 330.145C181.884 331.815 171.877 335.798 167.798 336.447C166.485 336.657 160.327 338.715 152.234 341.482C133.498 356.066 154.684 392.341 154.684 392.341C154.684 392.341 150.468 376.76 150.282 366.912C150.096 357.063 155.289 351.375 179.011 346.001Z" fill="#C9E2F4"/>
<path fill-rule="evenodd" clip-rule="evenodd" d="M189.761 308.375C185.499 300.777 184.386 299.385 184.386 299.385C184.386 299.385 189.297 293.086 185.221 287.155C184.668 286.351 183.716 285.66 182.492 285.093L176.719 291.536C176.719 291.536 178.664 302.378 177.063 301.615C175.461 300.852 174.214 298.347 171.85 295.519C169.994 293.296 160.681 300.553 156.767 303.766C157.454 312.454 159.832 327.402 168.107 327.186C174.661 327.014 178.046 323.78 178.046 323.78C178.046 323.78 182.702 337.124 181.936 339.279C181.169 341.433 185.761 342.756 191.946 340.461C198.132 338.165 206.82 326.076 206.82 326.076C206.82 326.076 194.025 315.976 189.761 308.375Z" fill="#F37878"/>
<path fill-rule="evenodd" clip-rule="evenodd" d="M171.853 295.519C174.217 298.347 175.468 300.849 177.066 301.615C178.664 302.382 176.723 291.536 176.723 291.536L182.479 285.11C174.695 281.598 155.756 283.705 156.478 297.722C156.478 297.722 156.478 300.224 156.756 303.77C160.684 300.553 169.997 293.296 171.853 295.519Z" fill="#F15859"/>
<path fill-rule="evenodd" clip-rule="evenodd" d="M178.039 323.784C178.039 323.784 181.166 320.447 182.348 317.461C182.348 317.461 182.764 322.811 182.626 327.261C182.489 331.712 181.891 337.275 181.891 337.275C181.891 337.275 180.018 329.138 178.039 323.784Z" fill="#F15859"/>
<path fill-rule="evenodd" clip-rule="evenodd" d="M182.534 291.859C182.534 291.859 184.503 288.079 184.664 290.484C184.826 292.89 184.015 295.859 184.015 295.859L182.534 291.859Z" fill="#F15859"/>
<path fill-rule="evenodd" clip-rule="evenodd" d="M194.094 296.828L194.074 296.773C194.005 296.574 193.936 296.364 193.878 296.144C192.857 292.555 192.345 288.841 192.355 285.11C192.355 278.268 166.636 287.361 166.636 287.361C166.822 286.605 167.832 285.663 169.386 284.632C160.695 287.807 150.121 291.976 149.952 292.23C149.674 292.649 133.966 302.447 147.797 301.801C161.629 301.155 167.953 292.924 171.358 291.326C174.764 289.728 175.32 299.945 177.059 301.615C178.798 303.285 179.073 293.344 179.073 293.344C179.073 293.344 183.417 284.601 185.537 287.783C188.458 292.161 184.379 299.388 184.379 299.388C184.379 299.388 190.403 312.179 191.252 312.643C192.101 313.107 197.366 312.179 194.307 311.691C191.249 311.203 192.781 306.131 194.651 303.072C196.225 300.522 194.926 299.179 194.094 296.828Z" fill="#1F2055"/>
<path fill-rule="evenodd" clip-rule="evenodd" d="M194.094 296.827L194.074 296.773L194.094 296.827Z" fill="#2F3E8B"/>
<path fill-rule="evenodd" clip-rule="evenodd" d="M166.636 287.361C166.636 287.361 192.355 278.268 192.355 285.11C192.345 288.841 192.857 292.555 193.878 296.144C193.799 295.873 193.733 295.591 193.675 295.289C193.049 291.883 194.926 294.038 196.455 283.605C197.984 273.172 182.486 281.237 180.541 281.027C179.778 280.945 174.973 282.577 169.392 284.619C167.832 285.663 166.822 286.605 166.636 287.361Z" fill="#2F3E8B"/>
<path fill-rule="evenodd" clip-rule="evenodd" d="M138.278 302.636C145.495 301.231 168.547 286.217 168.547 286.217L154.684 287.853C154.684 287.853 141.897 294.038 137.656 296.829C133.416 299.619 138.275 302.636 138.278 302.636Z" fill="#E0A126"/>
<path fill-rule="evenodd" clip-rule="evenodd" d="M138.278 302.636C138.278 302.636 133.419 299.619 137.656 296.828C141.894 294.038 154.684 287.852 154.684 287.852C154.684 287.852 134.392 296.347 132.027 298.065C129.663 299.784 131.818 302.096 137.031 302.722C137.432 302.755 137.836 302.728 138.23 302.643H138.271L138.278 302.636Z" fill="#FDB714"/>
<path fill-rule="evenodd" clip-rule="evenodd" d="M190.122 278.447L153.99 292.162C153.99 292.162 141.017 278.437 151.605 272.406C162.193 266.375 179.08 261.004 190.122 278.447Z" fill="#FDB714"/>
<path fill-rule="evenodd" clip-rule="evenodd" d="M161.54 268.034C161.54 268.034 177.97 270.784 181.791 281.608L164.059 288.34C164.059 288.34 152.691 273.667 161.54 268.034Z" fill="#E0A126"/>
<path fill-rule="evenodd" clip-rule="evenodd" d="M152.237 341.492C137.718 346.447 116.975 353.664 106.772 356.519C106.772 356.519 94.8786 378.513 100.714 388.396C125.78 392.719 154.688 392.341 154.688 392.341C154.688 392.341 133.498 356.076 152.237 341.492Z" fill="#C9E2F4"/>
<path fill-rule="evenodd" clip-rule="evenodd" d="M122.683 306.155C122.683 306.155 123.422 305.784 123.051 301.708C122.68 297.632 113.958 297.722 108.027 298.753C102.095 299.784 100.81 311.169 100.81 315.062C100.81 318.956 74.4795 334.698 65.2112 364.166C64.7856 365.478 64.5812 366.852 64.6064 368.231C65.0428 372.726 69.8471 380.781 99.1708 379.571C99.9406 369.155 106.769 356.516 106.769 356.516C104.982 357.018 103.515 357.385 102.466 357.581C92.0882 359.53 92.6415 350.818 100.704 335.805C108.766 320.791 121.835 316.344 122.852 315.873C123.869 315.402 123.78 314.842 124.244 310.684C124.708 306.526 122.683 306.155 122.683 306.155Z" fill="#F37878"/>
<path fill-rule="evenodd" clip-rule="evenodd" d="M64.6064 368.231C64.8951 379.138 81.6962 385.121 100.71 388.403C99.298 385.997 98.9268 382.904 99.1708 379.581C69.8471 380.781 65.0428 372.726 64.6064 368.231Z" fill="#F15859"/>
<path fill-rule="evenodd" clip-rule="evenodd" d="M122.683 306.155C122.683 306.155 114.804 305.832 114.456 306.155C114.109 306.478 113.45 308.148 114.319 308.705C115.188 309.261 118.941 310.65 118.941 310.65C118.941 310.65 110.693 309.467 109.594 310.962L104.539 307.382C104.539 307.382 104.539 304.708 105.999 304.708C107.46 304.708 122.683 306.155 122.683 306.155Z" fill="#F15859"/>
<path fill-rule="evenodd" clip-rule="evenodd" d="M270.941 405.97L288.179 453.297C288.179 453.297 259.151 459.785 228.349 456.355L211.445 405.97H270.941Z" fill="#FDB714"/>
<path fill-rule="evenodd" clip-rule="evenodd" d="M288.179 453.311L324.317 426.994L310.231 389.001L270.941 405.98L288.179 453.311Z" fill="#E0A126"/>
<path fill-rule="evenodd" clip-rule="evenodd" d="M211.445 405.97C211.445 405.97 220.724 430.132 238.875 436.802C257.027 443.472 288.179 453.297 288.179 453.297L270.941 405.97H211.445Z" fill="#E0A126"/>
<path fill-rule="evenodd" clip-rule="evenodd" d="M311.901 387.101L270.941 400.029L206.813 402.74L207.923 416.846L273.952 414.255L315.791 398.08L311.901 387.101Z" fill="#FDB714"/>
<path fill-rule="evenodd" clip-rule="evenodd" d="M206.813 402.74L270.941 400.028L273.955 414.255C273.955 414.255 265.055 404.616 259.357 405.726C253.659 406.836 206.813 402.74 206.813 402.74Z" fill="#E0A126"/>
<path fill-rule="evenodd" clip-rule="evenodd" d="M268.529 381.54C268.529 381.54 259.182 384.015 247.157 387.726L218.675 400.028H270.941L311.901 387.1L268.529 381.54Z" fill="#E0A126"/>
<path fill-rule="evenodd" clip-rule="evenodd" d="M247.157 387.726C233.999 391.788 217.634 397.348 206.813 402.74L270.941 400.029H218.675L247.157 387.726Z" fill="#FDB714"/>
<path fill-rule="evenodd" clip-rule="evenodd" d="M245.549 325.616C245.102 325.564 244.597 325.512 244.044 325.461C236.611 326.42 235.724 349.516 242.398 362.496C249.071 375.475 279.649 389.001 279.649 389.001L295.196 350.471C274.746 337.825 250.965 326.244 245.549 325.616Z" fill="white"/>
<path fill-rule="evenodd" clip-rule="evenodd" d="M326.912 378.066C326.331 371.747 311.867 360.76 295.21 350.472L279.65 389.001C279.65 389.001 289.176 393.658 292.708 397.527C293.11 397.97 293.469 398.45 293.78 398.96C294.487 400.143 295.034 401.414 295.406 402.74C297.811 408.761 301.856 420.768 299.921 429.775C297.234 442.283 293.997 450.163 288.155 453.311C282.313 456.459 263.165 456.603 263.165 456.603C263.165 456.603 271.704 460.771 279.072 461.465C286.44 462.16 296.306 449.05 296.306 449.05C325.438 429.403 328.211 392.152 326.912 378.066Z" fill="#F37878"/>
<path fill-rule="evenodd" clip-rule="evenodd" d="M299.946 429.775C301.88 420.768 297.842 408.761 295.43 402.74C299.533 416.575 292.578 444.465 291.048 445.991C289.289 447.751 277.24 446.641 274.921 446.733C272.601 446.826 279.096 452.757 279.096 452.757C277.797 454.703 263.189 456.603 263.189 456.603C263.189 456.603 282.337 456.462 288.179 453.311C294.021 450.16 297.258 442.283 299.946 429.775Z" fill="#F15859"/>
</g>
<defs>
<linearGradient id="paint0_linear_3_131" x1="581" y1="-399" x2="-76.5" y2="1027.5" gradientUnits="userSpaceOnUse">
<stop stop-color="#03004D"/>
<stop offset="0.971829" stop-color="#3563EB"/>
</linearGradient>
<linearGradient id="paint1_linear_3_131" x1="484.792" y1="304.492" x2="270.408" y2="514.179" gradientUnits="userSpaceOnUse">
<stop stop-color="#2F3E8B"/>
<stop offset="0.25" stop-color="#2D3B85"/>
<stop offset="0.58" stop-color="#283174"/>
<stop offset="0.97" stop-color="#202158"/>
<stop offset="1" stop-color="#1F2055"/>
</linearGradient>
<linearGradient id="paint2_linear_3_131" x1="486.239" y1="296.392" x2="244.654" y2="531.098" gradientUnits="userSpaceOnUse">
<stop stop-color="#C9E2F4"/>
<stop offset="0.25" stop-color="#CFE5F5"/>
<stop offset="0.58" stop-color="#E0EEF9"/>
<stop offset="0.97" stop-color="#FCFEFE"/>
<stop offset="1" stop-color="white"/>
</linearGradient>
<linearGradient id="paint3_linear_3_131" x1="471.427" y1="296.076" x2="299.24" y2="490.285" gradientUnits="userSpaceOnUse">
<stop stop-color="#D5D7D8"/>
<stop offset="0.43" stop-color="#DCDDDF"/>
<stop offset="1" stop-color="#ECEDF1"/>
</linearGradient>
<linearGradient id="paint4_linear_3_131" x1="351.146" y1="606.246" x2="569.503" y2="430.81" gradientUnits="userSpaceOnUse">
<stop stop-color="#D5D7D8"/>
<stop offset="0.29" stop-color="#DBDDDE"/>
<stop offset="0.69" stop-color="#ECEDEE"/>
<stop offset="1" stop-color="white"/>
</linearGradient>
<radialGradient id="paint5_radial_3_131" cx="0" cy="0" r="1" gradientUnits="userSpaceOnUse" gradientTransform="translate(312.548 422.736) rotate(13.3604) scale(198.891 191.141)">
<stop stop-color="#E20882"/>
<stop offset="0.55" stop-color="#FBAF4A"/>
<stop offset="1" stop-color="#FCF5A3"/>
</radialGradient>
<radialGradient id="paint6_radial_3_131" cx="0" cy="0" r="1" gradientUnits="userSpaceOnUse" gradientTransform="translate(303.546 415.098) rotate(19.7253) scale(416.258 374.462)">
<stop stop-color="#C16428"/>
<stop offset="0.55" stop-color="#F78F30" stop-opacity="0.49"/>
<stop offset="1" stop-color="#FFEE99"/>
</radialGradient>
<radialGradient id="paint7_radial_3_131" cx="0" cy="0" r="1" gradientUnits="userSpaceOnUse" gradientTransform="translate(78.8454 155.347) scale(241.865 241.865)">
<stop stop-color="#C16428"/>
<stop offset="0.55" stop-color="#F78F30" stop-opacity="0.49"/>
<stop offset="1" stop-color="#FFEE99"/>
</radialGradient>
<radialGradient id="paint8_radial_3_131" cx="0" cy="0" r="1" gradientUnits="userSpaceOnUse" gradientTransform="translate(163.227 155.347) scale(241.865 241.865)">
<stop stop-color="#C16428"/>
<stop offset="0.55" stop-color="#F78F30" stop-opacity="0.49"/>
<stop offset="1" stop-color="#FFEE99"/>
</radialGradient>
<radialGradient id="paint9_radial_3_131" cx="0" cy="0" r="1" gradientUnits="userSpaceOnUse" gradientTransform="translate(139.446 155.347) scale(241.869 241.868)">
<stop stop-color="#C16428"/>
<stop offset="0.55" stop-color="#F78F30" stop-opacity="0.49"/>
<stop offset="1" stop-color="#FFEE99"/>
</radialGradient>
<radialGradient id="paint10_radial_3_131" cx="0" cy="0" r="1" gradientUnits="userSpaceOnUse" gradientTransform="translate(91.0203 155.347) scale(241.868 241.868)">
<stop stop-color="#C16428"/>
<stop offset="0.55" stop-color="#F78F30" stop-opacity="0.49"/>
<stop offset="1" stop-color="#FFEE99"/>
</radialGradient>
<radialGradient id="paint11_radial_3_131" cx="0" cy="0" r="1" gradientUnits="userSpaceOnUse" gradientTransform="translate(49.6343 155.347) scale(241.869 241.869)">
<stop stop-color="#C16428"/>
<stop offset="0.55" stop-color="#F78F30" stop-opacity="0.49"/>
<stop offset="1" stop-color="#FFEE99"/>
</radialGradient>
<radialGradient id="paint12_radial_3_131" cx="0" cy="0" r="1" gradientUnits="userSpaceOnUse" gradientTransform="translate(178.012 155.347) scale(241.872 241.872)">
<stop stop-color="#C16428"/>
<stop offset="0.55" stop-color="#F78F30" stop-opacity="0.49"/>
<stop offset="1" stop-color="#FFEE99"/>
</radialGradient>
<radialGradient id="paint13_radial_3_131" cx="0" cy="0" r="1" gradientUnits="userSpaceOnUse" gradientTransform="translate(210.622 155.346) scale(241.875 241.875)">
<stop stop-color="#C16428"/>
<stop offset="0.55" stop-color="#F78F30" stop-opacity="0.49"/>
<stop offset="1" stop-color="#FFEE99"/>
</radialGradient>
<radialGradient id="paint14_radial_3_131" cx="0" cy="0" r="1" gradientUnits="userSpaceOnUse" gradientTransform="translate(161.856 155.346) scale(241.875 241.875)">
<stop stop-color="#C16428"/>
<stop offset="0.55" stop-color="#F78F30" stop-opacity="0.49"/>
<stop offset="1" stop-color="#FFEE99"/>
</radialGradient>
<radialGradient id="paint15_radial_3_131" cx="0" cy="0" r="1" gradientUnits="userSpaceOnUse" gradientTransform="translate(12.0368 155.347) scale(241.868 241.868)">
<stop stop-color="#C16428"/>
<stop offset="0.55" stop-color="#F78F30" stop-opacity="0.49"/>
<stop offset="1" stop-color="#FFEE99"/>
</radialGradient>
<radialGradient id="paint16_radial_3_131" cx="0" cy="0" r="1" gradientUnits="userSpaceOnUse" gradientTransform="translate(353.255 330.788) rotate(2.0908) scale(137.445 137.482)">
<stop stop-color="#E20882"/>
<stop offset="0.55" stop-color="#FBAF4A"/>
<stop offset="1" stop-color="#FCF5A3"/>
</radialGradient>
<radialGradient id="paint17_radial_3_131" cx="0" cy="0" r="1" gradientUnits="userSpaceOnUse" gradientTransform="translate(274.144 335.819) rotate(2.19814) scale(181.949 181.972)">
<stop stop-color="#E20882"/>
<stop offset="0.55" stop-color="#FBAF4A"/>
<stop offset="1" stop-color="#FCF5A3"/>
</radialGradient>
<radialGradient id="paint18_radial_3_131" cx="0" cy="0" r="1" gradientUnits="userSpaceOnUse" gradientTransform="translate(267.316 305.412) rotate(3.2627) scale(414.304 413.622)">
<stop stop-color="#C16428"/>
<stop offset="0.55" stop-color="#F78F30" stop-opacity="0.49"/>
<stop offset="1" stop-color="#FFEE99"/>
</radialGradient>
<radialGradient id="paint19_radial_3_131" cx="0" cy="0" r="1" gradientUnits="userSpaceOnUse" gradientTransform="translate(271.729 305.411) rotate(3.68822) scale(414.491 413.436)">
<stop stop-color="#C16428"/>
<stop offset="0.55" stop-color="#F78F30" stop-opacity="0.49"/>
<stop offset="1" stop-color="#FFEE99"/>
</radialGradient>
<radialGradient id="paint20_radial_3_131" cx="0" cy="0" r="1" gradientUnits="userSpaceOnUse" gradientTransform="translate(251.124 304.31) rotate(1.75366) scale(413.826 414.1)">
<stop stop-color="#C16428"/>
<stop offset="0.55" stop-color="#F78F30" stop-opacity="0.49"/>
<stop offset="1" stop-color="#FFEE99"/>
</radialGradient>
<radialGradient id="paint21_radial_3_131" cx="0" cy="0" r="1" gradientUnits="userSpaceOnUse" gradientTransform="translate(251.121 304.713) rotate(1.96048) scale(413.874 414.051)">
<stop stop-color="#C16428"/>
<stop offset="0.55" stop-color="#F78F30" stop-opacity="0.49"/>
<stop offset="1" stop-color="#FFEE99"/>
</radialGradient>
<radialGradient id="paint22_radial_3_131" cx="0" cy="0" r="1" gradientUnits="userSpaceOnUse" gradientTransform="translate(251.88 305.418) rotate(2.3232) scale(413.972 413.953)">
<stop stop-color="#C16428"/>
<stop offset="0.55" stop-color="#F78F30" stop-opacity="0.49"/>
<stop offset="1" stop-color="#FFEE99"/>
</radialGradient>
<radialGradient id="paint23_radial_3_131" cx="0" cy="0" r="1" gradientUnits="userSpaceOnUse" gradientTransform="translate(251.109 303.194) rotate(1.31204) scale(413.741 414.186)">
<stop stop-color="#C16428"/>
<stop offset="0.55" stop-color="#F78F30" stop-opacity="0.49"/>
<stop offset="1" stop-color="#FFEE99"/>
</radialGradient>
<radialGradient id="paint24_radial_3_131" cx="0" cy="0" r="1" gradientUnits="userSpaceOnUse" gradientTransform="translate(252.845 305.408) rotate(2.3657) scale(413.985 413.941)">
<stop stop-color="#C16428"/>
<stop offset="0.55" stop-color="#F78F30" stop-opacity="0.49"/>
<stop offset="1" stop-color="#FFEE99"/>
</radialGradient>
<radialGradient id="paint25_radial_3_131" cx="0" cy="0" r="1" gradientUnits="userSpaceOnUse" gradientTransform="translate(251.077 304.123) rotate(1.78101) scale(413.832 414.094)">
<stop stop-color="#C16428"/>
<stop offset="0.55" stop-color="#F78F30" stop-opacity="0.49"/>
<stop offset="1" stop-color="#FFEE99"/>
</radialGradient>
<radialGradient id="paint26_radial_3_131" cx="0" cy="0" r="1" gradientUnits="userSpaceOnUse" gradientTransform="translate(266.182 305.421) rotate(3.17917) scale(414.27 413.656)">
<stop stop-color="#C16428"/>
<stop offset="0.55" stop-color="#F78F30" stop-opacity="0.49"/>
<stop offset="1" stop-color="#FFEE99"/>
</radialGradient>
<radialGradient id="paint27_radial_3_131" cx="0" cy="0" r="1" gradientUnits="userSpaceOnUse" gradientTransform="translate(331.464 327.86) rotate(2.98567) scale(278.495 278.184)">
<stop stop-color="#C16428"/>
<stop offset="0.55" stop-color="#F78F30" stop-opacity="0.49"/>
<stop offset="1" stop-color="#FFEE99"/>
</radialGradient>
<radialGradient id="paint28_radial_3_131" cx="0" cy="0" r="1" gradientUnits="userSpaceOnUse" gradientTransform="translate(339.252 324.544) rotate(2.01708) scale(278.293 278.393)">
<stop stop-color="#C16428"/>
<stop offset="0.55" stop-color="#F78F30" stop-opacity="0.49"/>
<stop offset="1" stop-color="#FFEE99"/>
</radialGradient>
<radialGradient id="paint29_radial_3_131" cx="0" cy="0" r="1" gradientUnits="userSpaceOnUse" gradientTransform="translate(326.191 327.866) rotate(3.73267) scale(278.708 277.971)">
<stop stop-color="#C16428"/>
<stop offset="0.55" stop-color="#F78F30" stop-opacity="0.49"/>
<stop offset="1" stop-color="#FFEE99"/>
</radialGradient>
<radialGradient id="paint30_radial_3_131" cx="0" cy="0" r="1" gradientUnits="userSpaceOnUse" gradientTransform="translate(332.462 327.882) rotate(2.85753) scale(278.466 278.219)">
<stop stop-color="#C16428"/>
<stop offset="0.55" stop-color="#F78F30" stop-opacity="0.49"/>
<stop offset="1" stop-color="#FFEE99"/>
</radialGradient>
<radialGradient id="paint31_radial_3_131" cx="0" cy="0" r="1" gradientUnits="userSpaceOnUse" gradientTransform="translate(339.178 326.272) rotate(2.1614) scale(278.318 278.367)">
<stop stop-color="#C16428"/>
<stop offset="0.55" stop-color="#F78F30" stop-opacity="0.49"/>
<stop offset="1" stop-color="#FFEE99"/>
</radialGradient>
<radialGradient id="paint32_radial_3_131" cx="0" cy="0" r="1" gradientUnits="userSpaceOnUse" gradientTransform="translate(339.211 320.586) rotate(1.70651) scale(278.244 278.442)">
<stop stop-color="#C16428"/>
<stop offset="0.55" stop-color="#F78F30" stop-opacity="0.49"/>
<stop offset="1" stop-color="#FFEE99"/>
</radialGradient>
<radialGradient id="paint33_radial_3_131" cx="0" cy="0" r="1" gradientUnits="userSpaceOnUse" gradientTransform="translate(323.473 327.867) rotate(4.30069) scale(278.902 277.777)">
<stop stop-color="#C16428"/>
<stop offset="0.55" stop-color="#F78F30" stop-opacity="0.49"/>
<stop offset="1" stop-color="#FFEE99"/>
</radialGradient>
<radialGradient id="paint34_radial_3_131" cx="0" cy="0" r="1" gradientUnits="userSpaceOnUse" gradientTransform="translate(324.065 327.869) rotate(4.16345) scale(278.853 277.827)">
<stop stop-color="#C16428"/>
<stop offset="0.55" stop-color="#F78F30" stop-opacity="0.49"/>
<stop offset="1" stop-color="#FFEE99"/>
</radialGradient>
<radialGradient id="paint35_radial_3_131" cx="0" cy="0" r="1" gradientUnits="userSpaceOnUse" gradientTransform="translate(333.469 327.914) rotate(2.74565) scale(278.44 278.245)">
<stop stop-color="#C16428"/>
<stop offset="0.55" stop-color="#F78F30" stop-opacity="0.49"/>
<stop offset="1" stop-color="#FFEE99"/>
</radialGradient>
<radialGradient id="paint36_radial_3_131" cx="0" cy="0" r="1" gradientUnits="userSpaceOnUse" gradientTransform="translate(339.229 317.767) rotate(1.46907) scale(278.212 278.474)">
<stop stop-color="#C16428"/>
<stop offset="0.55" stop-color="#F78F30" stop-opacity="0.49"/>
<stop offset="1" stop-color="#FFEE99"/>
</radialGradient>
<linearGradient id="paint37_linear_3_131" x1="317.007" y1="374.076" x2="399.634" y2="378.226" gradientUnits="userSpaceOnUse">
<stop stop-color="#6F1911"/>
<stop offset="1" stop-color="#030303"/>
</linearGradient>
<linearGradient id="paint38_linear_3_131" x1="345.27" y1="536.675" x2="415.447" y2="536.675" gradientUnits="userSpaceOnUse">
<stop stop-color="#D5D7D8"/>
<stop offset="0.29" stop-color="#DBDDDE"/>
<stop offset="0.69" stop-color="#ECEDEE"/>
<stop offset="1" stop-color="white"/>
</linearGradient>
<clipPath id="clip0_3_131">
<rect width="554" height="824" fill="white"/>
</clipPath>
</defs>
</svg>
