<svg width="554" height="824" viewBox="0 0 554 824" fill="none" xmlns="http://www.w3.org/2000/svg">
<g clip-path="url(#clip0_3_189)">
<rect width="554" height="824" rx="32" fill="#F7F7F7"/>
<rect width="654" height="900" fill="url(#paint0_linear_3_189)"/>
<path fill-rule="evenodd" clip-rule="evenodd" d="M512.04 596.221H474.781L469.819 523.606H517.299L512.04 596.221Z" fill="#D3D5D7"/>
<path fill-rule="evenodd" clip-rule="evenodd" d="M483.473 507.677C483.473 507.677 489.381 478.47 477.562 466.657C465.742 454.844 459.003 450.621 459.003 450.621C459.003 450.621 437.041 485.751 483.473 507.677Z" fill="#EBECF0"/>
<path fill-rule="evenodd" clip-rule="evenodd" d="M486.175 426.2C486.175 426.2 492.082 396.994 480.263 385.184C468.444 373.374 461.704 369.148 461.704 369.148C461.704 369.148 439.736 404.258 486.175 426.2Z" fill="#EBECF0"/>
<path fill-rule="evenodd" clip-rule="evenodd" d="M490.563 378.71C490.563 378.71 495.743 359.695 485.948 348.888C476.153 338.082 465.574 335.385 465.574 335.385C465.574 335.385 464.223 365.32 490.563 378.71Z" fill="#D3D5D7"/>
<path fill-rule="evenodd" clip-rule="evenodd" d="M500.018 492.317C500.018 492.317 497.654 449.947 525.85 432.224C525.85 432.224 526.032 482.184 500.018 492.317Z" fill="#EBECF0"/>
<path fill-rule="evenodd" clip-rule="evenodd" d="M493.292 466.763C493.292 466.763 489.89 437.278 468.351 428.41C468.351 428.41 474.156 462.867 493.292 466.763Z" fill="#D3D5D7"/>
<path fill-rule="evenodd" clip-rule="evenodd" d="M505.253 416.861C505.253 416.861 488.199 386.644 522.811 364.196C522.811 364.196 536.095 401.989 505.253 416.861Z" fill="#D3D5D7"/>
<path d="M484.951 361.832C484.951 361.832 494.502 380.511 494.502 409.095V451.634" stroke="#D3D5D7" stroke-width="2" stroke-linecap="round"/>
<path d="M476.27 403.694C476.27 403.694 484.26 417.988 486.174 426.2C488.089 434.412 489.725 460.75 489.725 487.421V545.49" stroke="#D3D5D7" stroke-width="2" stroke-linecap="round"/>
<path d="M473.568 485.844C473.568 485.844 482.504 500.138 483.473 507.676C484.442 515.215 483.473 546.332 483.473 546.332" stroke="#D3D5D7" stroke-width="2" stroke-linecap="round"/>
<path d="M485.752 456.108C485.752 456.108 491.123 462.636 493.292 466.76C495.461 470.883 497.231 485.658 497.231 492.314V541.941" stroke="#D3D5D7" stroke-width="2" stroke-linecap="round"/>
<path d="M512.006 394.073C512.006 394.073 505.253 407.24 505.253 416.861V541.934" stroke="#D3D5D7" stroke-width="2" stroke-linecap="round"/>
<path d="M142.012 244.566H141.359V263.134H142.012V244.566Z" fill="#D3D5D7"/>
<path d="M170.579 263.134H169.926V281.703H170.579V263.134Z" fill="#D3D5D7"/>
<path d="M151.112 281.703H150.459V300.271H151.112V281.703Z" fill="#D3D5D7"/>
<path d="M199.053 262.808H115.421V263.461H199.053V262.808Z" fill="#D3D5D7"/>
<path d="M190.183 281.376H106.55V282.029H190.183V281.376Z" fill="#D3D5D7"/>
<path d="M212.759 299.945H129.127V300.598H212.759V299.945Z" fill="#D3D5D7"/>
<path fill-rule="evenodd" clip-rule="evenodd" d="M484.93 237.783V294.368H394.118V237.783H484.93Z" fill="#EBECF0"/>
<path d="M492.77 301.148H386.279V231H492.77V301.148ZM386.605 300.804H492.443V231.347H386.605V300.804Z" fill="#DEDFED"/>
<path fill-rule="evenodd" clip-rule="evenodd" d="M554.781 605.983C554.781 605.983 581.276 605.546 570.848 610.625C560.421 615.704 468.052 616.81 427.281 621.462C386.509 626.115 288.432 625.029 348.515 618.49C408.598 611.951 509.971 604.887 554.781 605.983Z" fill="#D3D5D7"/>
<path fill-rule="evenodd" clip-rule="evenodd" d="M142.159 621.476C142.159 621.476 210.041 623.039 197.558 627.317C185.075 631.595 63.4107 631.162 51.6739 630.753C39.937 630.344 11.6964 625.046 51.6739 624.355C91.6514 623.665 142.159 621.476 142.159 621.476Z" fill="#D3D5D7"/>
<path d="M83.4546 274.539C83.4546 274.539 236.504 272.346 196.589 340.48C156.673 408.614 51.1654 489.025 190.746 491.767C330.327 494.509 396.153 330.499 511.996 311.03" stroke="#1F2055" stroke-width="2" stroke-linecap="round" stroke-dasharray="8 8"/>
<path fill-rule="evenodd" clip-rule="evenodd" d="M92.002 278.803L88.4792 282.579L61.6202 271.381L92.002 278.803Z" fill="#1F2055"/>
<path fill-rule="evenodd" clip-rule="evenodd" d="M90.7509 266.333L93.4041 270.336L91.6101 274.257L95.6312 274.941L99.1883 282.744L60.7574 271.12L90.7509 266.333Z" fill="#2F3E8A"/>
<path fill-rule="evenodd" clip-rule="evenodd" d="M91.6103 274.257L93.4043 270.336L72.5873 271.309L91.6103 274.257Z" fill="#1F2055"/>
<path fill-rule="evenodd" clip-rule="evenodd" d="M505.266 312.689L508.793 316.466L535.652 305.267L505.266 312.689Z" fill="#1F2055"/>
<path fill-rule="evenodd" clip-rule="evenodd" d="M506.521 300.22L503.868 304.223L505.662 308.143L501.637 308.827L498.083 316.63L536.514 305.006L506.521 300.22Z" fill="#2F3E8A"/>
<path fill-rule="evenodd" clip-rule="evenodd" d="M505.661 308.143L503.867 304.223L524.684 305.195L505.661 308.143Z" fill="#1F2055"/>
<path fill-rule="evenodd" clip-rule="evenodd" d="M415.303 592.675H189.22C176.484 592.669 166.162 582.345 166.162 569.612V274.982C166.162 262.244 176.49 251.919 189.231 251.919H271.461C279.174 251.92 286.376 255.774 290.655 262.189L295.412 269.326C299.694 275.738 306.896 279.587 314.607 279.586H415.307C428.045 279.594 438.367 289.923 438.361 302.659V569.612C438.361 582.345 428.039 592.669 415.303 592.675Z" fill="url(#paint1_linear_3_189)"/>
<path d="M411.886 308.425H189.685C187.094 308.425 184.993 310.526 184.993 313.118V330.641C184.993 333.232 187.094 335.333 189.685 335.333H411.886C414.477 335.333 416.578 333.232 416.578 330.641V313.118C416.578 310.526 414.477 308.425 411.886 308.425Z" fill="#EBECF0"/>
<path fill-rule="evenodd" clip-rule="evenodd" d="M388.946 335.337H350.883C343.45 335.337 337.424 329.312 337.424 321.881C337.424 314.45 343.45 308.425 350.883 308.425H388.946C396.379 308.425 402.405 314.45 402.405 321.881C402.405 329.312 396.379 335.337 388.946 335.337Z" fill="#303D8B"/>
<path d="M402.68 363.096H201.843C200.074 363.096 198.641 364.53 198.641 366.299V589.472C198.641 591.241 200.074 592.675 201.843 592.675H402.68C404.449 592.675 405.883 591.241 405.883 589.472V366.299C405.883 364.53 404.449 363.096 402.68 363.096Z" fill="#EBECF0"/>
<path fill-rule="evenodd" clip-rule="evenodd" d="M358.014 475.364H246.509C239.024 475.364 232.958 473.209 232.958 470.553C232.958 467.894 239.024 465.743 246.509 465.743H358.014C365.5 465.743 371.566 467.897 371.566 470.553C371.566 473.209 365.5 475.364 358.014 475.364Z" fill="#303D8B"/>
<path fill-rule="evenodd" clip-rule="evenodd" d="M358.014 457.919H246.509C239.024 457.919 232.958 455.764 232.958 453.108C232.958 450.449 239.024 448.298 246.509 448.298H358.014C365.5 448.298 371.566 450.452 371.566 453.108C371.566 455.75 365.5 457.919 358.014 457.919Z" fill="#303D8B"/>
<path fill-rule="evenodd" clip-rule="evenodd" d="M358.09 440.937H246.585C239.099 440.937 233.03 438.783 233.03 436.127C233.03 433.467 239.099 431.316 246.585 431.316H358.09C365.576 431.316 371.645 433.471 371.645 436.127C371.645 438.783 365.576 440.937 358.09 440.937Z" fill="#303D8B"/>
<path fill-rule="evenodd" clip-rule="evenodd" d="M358.014 491.768H246.509C239.024 491.768 232.958 489.881 232.958 487.555C232.958 485.229 239.024 483.342 246.509 483.342H358.014C365.5 483.342 371.566 485.229 371.566 487.555C371.566 489.874 365.5 491.768 358.014 491.768Z" fill="#303D8B"/>
<path d="M251.72 515.136H239.511C238.435 515.136 237.563 516.008 237.563 517.084V528.654C237.563 529.73 238.435 530.602 239.511 530.602H251.72C252.796 530.602 253.668 529.73 253.668 528.654V517.084C253.668 516.008 252.796 515.136 251.72 515.136Z" fill="#303D8B"/>
<path fill-rule="evenodd" clip-rule="evenodd" d="M369.675 545.587H329.121C323.893 545.587 319.654 541.35 319.652 536.124C319.652 530.895 323.891 526.657 329.121 526.657H369.675C374.905 526.657 379.144 530.895 379.144 536.124C379.142 541.35 374.903 545.587 369.675 545.587Z" fill="#0A1658"/>
<path fill-rule="evenodd" clip-rule="evenodd" d="M357.457 536.124C357.457 530.896 353.218 526.657 347.989 526.657H329.11C325.685 526.592 322.492 528.382 320.76 531.337C319.028 534.292 319.028 537.952 320.76 540.907C322.492 543.862 325.685 545.652 329.11 545.587H347.989C353.217 545.587 357.455 541.35 357.457 536.124Z" fill="#E0A010"/>
<path fill-rule="evenodd" clip-rule="evenodd" d="M459.068 580.648C459.087 592.812 451.775 603.789 440.542 608.46C429.309 613.131 416.367 610.576 407.753 601.986C399.139 593.397 396.55 580.465 401.192 569.222C405.835 557.979 416.795 550.64 428.961 550.627C436.959 550.539 444.656 553.671 450.319 559.318C455.982 564.965 459.135 572.652 459.068 580.648Z" fill="#0A1658"/>
<path fill-rule="evenodd" clip-rule="evenodd" d="M459.068 580.648C459.08 587.208 456.925 593.589 452.937 598.798C443.601 603.701 432.38 603.366 423.354 597.915C414.327 592.464 408.809 582.691 408.804 572.148C408.779 565.645 410.906 559.317 414.853 554.149C424.167 549.195 435.397 549.483 444.446 554.908C453.494 560.332 459.038 570.1 459.054 580.648H459.068Z" fill="#FCB614"/>
<path fill-rule="evenodd" clip-rule="evenodd" d="M426.999 594.08C425.735 594.079 424.552 593.456 423.837 592.413L416.022 580.964C414.828 579.219 415.275 576.837 417.02 575.644C418.765 574.45 421.148 574.897 422.342 576.642L426.992 583.435L440.052 564.083C441.234 562.33 443.613 561.866 445.367 563.047C447.121 564.228 447.585 566.607 446.403 568.361L430.205 592.389C429.498 593.443 428.313 594.077 427.044 594.08H426.999Z" fill="#303D8B"/>
<path d="M302.467 418.897C314.153 418.781 323.532 409.188 323.416 397.47C323.299 385.752 313.731 376.348 302.045 376.464C290.359 376.58 280.98 386.173 281.097 397.891C281.213 409.609 290.781 419.014 302.467 418.897Z" fill="#2F3E8A"/>
<path fill-rule="evenodd" clip-rule="evenodd" d="M311.662 406.285L293.023 406.48L293.023 403.759C293.016 402.073 293.852 400.495 295.251 399.553L298.801 397.165C296.374 395.613 295.26 392.648 296.064 389.882C296.868 387.116 299.398 385.211 302.279 385.201C305.16 385.191 307.703 387.079 308.526 389.84C309.349 392.6 308.256 395.572 305.84 397.141L309.4 399.505C310.803 400.44 311.649 402.012 311.655 403.697L311.662 406.285Z" fill="white"/>
<path fill-rule="evenodd" clip-rule="evenodd" d="M496.444 377.219H465.169C462.989 377.219 461.223 378.985 461.223 381.164V408.862C461.221 409.319 461.497 409.732 461.92 409.907C462.342 410.082 462.829 409.984 463.151 409.659L470.296 402.515C470.925 401.889 471.777 401.537 472.664 401.536H496.444C498.658 401.534 500.453 399.74 500.455 397.526V381.229C500.455 379.014 498.659 377.219 496.444 377.219Z" fill="#2F3E8A"/>
<path fill-rule="evenodd" clip-rule="evenodd" d="M492.663 384.435H470.324C469.527 384.436 468.882 385.081 468.88 385.878C468.882 386.674 469.527 387.319 470.324 387.321H492.663C493.46 387.319 494.105 386.674 494.107 385.878C494.105 385.081 493.46 384.436 492.663 384.435Z" fill="#1F2055"/>
<path fill-rule="evenodd" clip-rule="evenodd" d="M483.886 392.709H470.324C469.527 392.711 468.882 393.356 468.88 394.152C468.882 394.948 469.527 395.593 470.324 395.595H483.892C484.689 395.593 485.336 394.949 485.339 394.152C485.336 393.352 484.685 392.707 483.886 392.709Z" fill="#1F2055"/>
<path fill-rule="evenodd" clip-rule="evenodd" d="M166.85 533.447C169.555 537.254 178.38 533.863 183.9 531.214C186.024 507.46 184.199 484.139 175.586 475.426C163.444 463.138 154.48 478.817 155.783 494.53C156.175 499.265 157.759 507.666 159.66 517.607C162.595 524.943 165.375 531.372 166.85 533.447Z" fill="#DF7126"/>
<path fill-rule="evenodd" clip-rule="evenodd" d="M167.427 590.826C167.138 590.751 166.857 590.675 166.578 590.589C166.719 591.06 167.011 591.118 167.427 590.826Z" fill="#C54F28"/>
<path fill-rule="evenodd" clip-rule="evenodd" d="M183.896 531.214C178.377 533.863 169.551 537.254 166.846 533.447C165.375 531.386 162.595 524.943 159.656 517.607C164.055 540.629 170.17 571.962 167.166 585.298C166.516 588.184 166.362 589.881 166.578 590.606C166.856 590.692 167.138 590.768 167.427 590.844C168.015 590.431 168.843 589.308 169.833 587.627C176.421 576.264 181.903 553.545 183.896 531.214Z" fill="#BF6328"/>
<path fill-rule="evenodd" clip-rule="evenodd" d="M166.585 590.616C166.815 591.348 167.448 591.029 168.334 589.885C184.302 546.178 167.389 478.483 167.338 478.264C167.243 477.89 166.863 477.664 166.489 477.758C166.115 477.853 165.889 478.233 165.984 478.607C166.039 478.813 183.182 547.435 166.585 590.616Z" fill="#141444"/>
<path fill-rule="evenodd" clip-rule="evenodd" d="M195.949 552.328C199.933 548.69 205.256 541.072 210.264 535.148C213.491 525.08 210.652 514.782 199.761 519.576C191.64 523.149 184.154 537.502 178.892 553.796C180.181 567.152 191.392 556.493 195.949 552.328Z" fill="#FCB614"/>
<path fill-rule="evenodd" clip-rule="evenodd" d="M171.692 602.681C172.328 606.876 173.376 607.598 174.29 601.753C176.652 586.669 203.187 550.157 208.659 539.124C209.295 537.835 209.835 536.502 210.274 535.134C205.267 541.072 199.943 548.69 195.96 552.315C191.402 556.479 180.191 567.138 178.903 553.768C173.136 571.605 170.042 591.754 171.692 602.681Z" fill="#DFA026"/>
<path fill-rule="evenodd" clip-rule="evenodd" d="M173.18 605.794C172.799 606.257 172.435 605.845 172.118 604.763C173.091 568.437 204.83 524.139 204.93 524.015C205.104 523.77 205.443 523.712 205.688 523.886C205.933 524.06 205.99 524.399 205.817 524.644C205.717 524.764 173.541 569.667 173.18 605.794Z" fill="#141444"/>
<path fill-rule="evenodd" clip-rule="evenodd" d="M153.57 518.156C151.714 514.504 150.999 510.092 150.738 506.732C149.343 505.096 147.669 503.722 145.792 502.674C133.014 495.953 129.838 510.704 134.846 522.888C137.87 530.248 148.404 548.092 156.58 564.66C159.165 560.279 156.852 524.62 153.57 518.156Z" fill="#FCB614"/>
<path fill-rule="evenodd" clip-rule="evenodd" d="M169.558 593.482C174.026 573.553 165.392 523.166 150.738 506.732C150.999 510.092 151.714 514.504 153.57 518.157C156.852 524.62 159.165 560.28 156.58 564.661C161.949 575.529 166.3 585.851 166.853 592.297C167.396 598.609 168.568 597.915 169.558 593.482Z" fill="#DFA026"/>
<path fill-rule="evenodd" clip-rule="evenodd" d="M167.74 596.695C168.111 597.221 168.53 596.805 168.946 595.664C170.62 556.816 140.039 507.168 139.939 507.013C139.837 506.824 139.639 506.707 139.424 506.709C139.209 506.71 139.013 506.83 138.913 507.021C138.814 507.211 138.828 507.441 138.949 507.618C139.046 507.783 170.046 558.104 167.74 596.695Z" fill="#141444"/>
<path fill-rule="evenodd" clip-rule="evenodd" d="M199.466 587.462L198.407 592.627L193.901 614.838H152.494L147.988 592.627L146.933 587.462H199.466Z" fill="#2F3E8A" stroke="#141444"/>
<path opacity="0.68" fill-rule="evenodd" clip-rule="evenodd" d="M199.036 589.558H180.298L152.494 614.837H193.901L199.036 589.558Z" fill="#141444"/>
<path d="M202.638 580.686H142.159V589.558H202.638V580.686Z" fill="#2F3E8A" stroke="#141444"/>
<path fill-rule="evenodd" clip-rule="evenodd" d="M418.376 422.142C418.376 422.142 394.957 444.762 390.427 449.61C385.897 454.458 371.827 481.466 385.251 481.143C398.676 480.82 419.176 467.653 420.733 463.726C422.29 459.798 418.376 422.142 418.376 422.142Z" fill="#C9E2F4"/>
<path fill-rule="evenodd" clip-rule="evenodd" d="M470.162 438.292C466.107 432.289 458.246 426.839 451.421 422.894C451.421 422.894 429.617 414.579 421.641 431.485C413.664 448.39 416.585 466.852 416.585 466.852C416.585 466.852 416.241 466.491 415.654 465.821C415.915 468.57 416.238 472.762 416.585 477.621L471.231 451.318C471.231 451.318 472.516 466.357 456.047 477.03C439.577 487.702 417.815 496.155 417.815 496.155C418.654 509.243 419.358 521.135 419.358 521.135C427.772 521.665 440.708 531.1 455.913 533.22C471.117 535.34 499.599 523.548 499.599 523.548C499.599 523.548 478.249 450.259 470.162 438.292Z" fill="white"/>
<path fill-rule="evenodd" clip-rule="evenodd" d="M471.248 451.308L416.602 477.611C417.008 483.273 417.444 489.847 417.85 496.145C417.85 496.145 439.612 487.692 456.081 477.02C472.551 466.347 471.248 451.308 471.248 451.308Z" fill="#C9E2F4"/>
<path fill-rule="evenodd" clip-rule="evenodd" d="M421.641 431.502C429.618 414.579 451.421 422.912 451.421 422.912C447.361 420.564 443.173 418.445 438.876 416.565C425.301 413.817 413.877 425.252 412.787 428.179C411.698 431.107 414.365 456.661 415.334 462.97C415.423 463.554 415.533 464.533 415.654 465.828C416.245 466.492 416.585 466.859 416.585 466.859C416.585 466.859 413.664 448.421 421.641 431.502Z" fill="#C9E2F4"/>
<path fill-rule="evenodd" clip-rule="evenodd" d="M433.704 331.436L454.802 342.072L372.079 506.082L350.982 495.446L433.704 331.436Z" fill="#303D8B"/>
<path fill-rule="evenodd" clip-rule="evenodd" d="M352.042 495.978L371.016 505.544L367.762 511.996L348.787 502.431L352.042 495.978Z" fill="#303D8B"/>
<path fill-rule="evenodd" clip-rule="evenodd" d="M349.166 506.219L364.491 513.945L361.237 520.398L345.912 512.671L349.166 506.219Z" fill="#303D8B"/>
<path fill-rule="evenodd" clip-rule="evenodd" d="M345.708 516.616L358.189 522.909L354.935 529.361L342.454 523.069L345.708 516.616Z" fill="#303D8B"/>
<path fill-rule="evenodd" clip-rule="evenodd" d="M350.378 531.087L343.803 527.771L341.785 531.794C341.022 533.306 340.833 534.973 341.28 536.22L342.734 540.261C343.277 541.776 345.209 541.354 346.133 539.515L350.378 531.087Z" fill="#FCB614"/>
<path fill-rule="evenodd" clip-rule="evenodd" d="M367.796 511.985L348.821 502.423L349.017 506.567L364.345 514.291L367.796 511.985Z" fill="#0A1658"/>
<path fill-rule="evenodd" clip-rule="evenodd" d="M361.269 520.39L345.944 512.662L345.793 516.631L358.169 522.871L361.269 520.39Z" fill="#0A1658"/>
<path fill-rule="evenodd" clip-rule="evenodd" d="M354.969 529.348L342.486 523.056L342.06 526.887L352.141 531.969L354.969 529.348Z" fill="#0A1658"/>
<path fill-rule="evenodd" clip-rule="evenodd" d="M444.248 336.754L454.796 342.071L372.073 506.082L361.526 500.764L444.248 336.754Z" fill="#0A1658"/>
<path fill-rule="evenodd" clip-rule="evenodd" d="M435.388 328.093L456.486 338.73L454.799 342.074L433.702 331.438L435.388 328.093Z" fill="#FEB701"/>
<path fill-rule="evenodd" clip-rule="evenodd" d="M439.317 325.882L455.922 334.253L454.236 337.598L437.631 329.226L439.317 325.882Z" fill="#FEB701"/>
<path fill-rule="evenodd" clip-rule="evenodd" d="M447.619 330.067L455.923 334.253L454.236 337.598L445.932 333.411L447.619 330.067Z" fill="#E0A010"/>
<path fill-rule="evenodd" clip-rule="evenodd" d="M445.933 333.412L456.48 338.729L454.793 342.073L444.246 336.756L445.933 333.412Z" fill="#E0A010"/>
<path d="M419.458 376.405L408.24 398.653C407.862 399.402 407.065 399.763 406.46 399.457C405.855 399.151 405.673 398.299 406.051 397.547L417.269 375.302C417.647 374.552 418.444 374.192 419.049 374.498C419.654 374.803 419.84 375.655 419.458 376.405ZM403.992 404.34C403.387 404.034 402.59 404.395 402.212 405.144L380.048 449.095C379.673 449.844 379.855 450.699 380.46 451.002C381.065 451.304 381.862 450.947 382.24 450.198L404.401 406.247C404.79 405.498 404.608 404.659 403.992 404.34Z" fill="#C9E2F4"/>
<path fill-rule="evenodd" clip-rule="evenodd" d="M428.999 402.316C428.999 402.316 432.69 398.729 432.048 395.035C431.848 393.884 432.869 394.004 434.333 394.798C433.8 392.801 433.395 391.224 433.206 390.348C432.154 385.5 406.763 381.071 407.732 391.159C407.732 391.159 409.189 418.486 415.417 418.971C421.644 419.455 424.067 417.352 424.067 417.352C424.067 417.352 426.738 415.535 427.281 414.442L424.009 422.142C424.084 424.819 424.394 427.688 425.363 428.025C427.222 428.671 439.595 427.135 441.86 421.475C441.86 421.475 435.471 411.167 434.622 408.683C433.773 406.199 432.113 402.618 428.999 402.316Z" fill="#FF7977"/>
<path fill-rule="evenodd" clip-rule="evenodd" d="M432.048 395.038C432.69 398.732 428.999 402.319 428.999 402.319C432.113 402.622 433.773 406.199 434.622 408.686C435.471 411.174 441.86 421.479 441.86 421.479C441.86 421.479 436.756 403.841 434.333 394.801C432.862 394.007 431.848 393.884 432.048 395.038Z" fill="#F45658"/>
<path fill-rule="evenodd" clip-rule="evenodd" d="M427.281 414.442C426.738 415.535 424.067 417.352 424.067 417.352C424.067 417.352 423.937 419.665 424.009 422.142L427.281 414.442Z" fill="#F45658"/>
<path fill-rule="evenodd" clip-rule="evenodd" d="M434.622 392.087C436.598 391.08 448.215 381.658 446.5 379.672C445.001 378.074 440.626 376.786 440.626 376.786C440.626 376.786 440.444 372.965 440.141 371.573C439.839 370.182 431.649 366.722 423.947 366.54C416.245 366.357 394.796 383.273 394.796 383.273C394.796 383.273 405.305 391.321 407.044 392.008C408.784 392.695 420.751 388.692 420.751 388.692L418.001 390.472L423.785 394.231L425.239 399.89L427.222 395.361C430.212 388.084 432.477 393.987 432.075 396.657C432.075 396.657 432.639 393.097 434.622 392.087Z" fill="#303D8B"/>
<path fill-rule="evenodd" clip-rule="evenodd" d="M437.079 404.732C437.079 404.732 445.355 383.517 446.812 381.274C447.156 380.727 446.981 380.184 446.5 379.672C448.218 381.658 436.598 391.08 434.622 392.087C432.646 393.094 432.075 396.657 432.075 396.657C431.67 399.323 437.079 404.732 437.079 404.732Z" fill="#0A1658"/>
<path fill-rule="evenodd" clip-rule="evenodd" d="M403.498 429.853C402.772 428.238 398.971 427.025 397.108 427.025C395.246 427.025 385.708 430.702 385.708 430.702C385.708 430.702 385.062 428.812 385.385 427.265C385.385 427.265 382.492 428.08 382.248 430.423C382.003 432.767 379.804 435.828 379.804 435.828C378.027 438.089 354.412 453.136 353.928 463.076C353.827 464.79 353.926 466.509 354.223 468.199C354.821 469.306 356.114 469.443 358.781 466.712C364.891 460.448 378.646 450.868 385.588 444.649C385.925 444.245 386.313 443.888 386.743 443.587C389.654 441.972 398.494 439.625 399.655 438.089C400.817 436.553 404.226 431.461 403.498 429.853Z" fill="#FF7977"/>
<path fill-rule="evenodd" clip-rule="evenodd" d="M360.558 476.26C362.479 476.408 380.299 450.418 385.605 444.648C378.646 450.868 364.891 460.454 358.798 466.711C356.131 469.46 354.839 469.306 354.241 468.199C355.316 474.127 358.873 476.13 360.558 476.26Z" fill="#F45658"/>
<path fill-rule="evenodd" clip-rule="evenodd" d="M465.794 436.677C454.367 429.533 441.919 440.587 428.999 455.575C428.999 455.575 441.846 471.587 444.785 477.951C457.632 471.683 466.781 463.265 469.53 459.008C473.558 452.682 469.781 439.168 465.794 436.677Z" fill="white"/>
<path fill-rule="evenodd" clip-rule="evenodd" d="M440.901 471.494C436.052 464.351 428.999 455.558 428.999 455.558C428.759 455.836 428.515 456.118 428.274 456.403C412.53 474.793 387.193 479.686 383.231 480.091C379.268 480.497 371.587 476.291 370.129 476.858C368.672 477.425 374.092 480.737 373.446 480.899C372.8 481.06 363.5 481.383 362.043 481.466C360.585 481.548 358.726 487.771 358.888 488.338C359.049 488.905 363.661 491.331 365.844 491.815C368.026 492.3 373.848 490.843 378.46 490.279C380.034 490.084 383.124 489.857 387.441 489.475C396.669 488.592 430.738 484.5 440.901 471.494Z" fill="#FF7977"/>
<path fill-rule="evenodd" clip-rule="evenodd" d="M444.785 477.934C444.022 476.285 442.596 473.989 440.901 471.495C430.738 484.5 396.669 488.593 387.441 489.476C395.751 488.744 408.612 487.452 423.988 484.782C431.207 483.484 438.208 481.179 444.785 477.934Z" fill="#F45658"/>
<path fill-rule="evenodd" clip-rule="evenodd" d="M496.918 524.578C496.943 523.678 496.92 522.776 496.849 521.878C496.361 519.129 427.301 514.847 419.376 521.111C419.376 521.111 415.939 522.249 410.784 524.118C410.804 524.118 433.226 525.561 442.489 532.543C451.751 539.525 484.621 531.884 496.918 524.578Z" fill="#0A1658"/>
<path fill-rule="evenodd" clip-rule="evenodd" d="M472.345 545.628C464.416 552.184 446.871 556.654 446.871 556.654C446.871 556.654 458.302 579.576 469.616 594.544C467.464 590.156 465.602 584.39 464.732 576.896C462.598 558.486 469.176 549.03 472.345 545.628Z" fill="#0A1658"/>
<path fill-rule="evenodd" clip-rule="evenodd" d="M473.953 544.126C473.376 544.581 472.838 545.083 472.344 545.628C472.914 545.164 473.451 544.663 473.953 544.126Z" fill="#0A1658"/>
<path fill-rule="evenodd" clip-rule="evenodd" d="M544.539 595.097L543.852 584.538C543.802 583.917 543.289 583.435 542.666 583.425H538.717C538.113 583.424 537.605 583.879 537.538 584.479C519.931 585.108 500.317 584.988 498.458 581.256C495.454 575.23 496.88 535.557 496.911 524.592C484.614 531.883 451.751 539.539 442.482 532.557C433.213 525.575 410.797 524.132 410.777 524.132C395.689 529.588 365.823 541.284 363.654 549.057C361.833 555.585 364.568 576.642 366.874 591.489C365.93 591.794 365.396 592.792 365.668 593.747L366.861 597.921C367.034 598.529 367.508 599.004 368.115 599.179C368.263 599.224 368.415 599.249 368.569 599.255L379.45 599.622C379.7 599.63 379.95 599.586 380.182 599.492C380.74 599.277 381.158 598.804 381.302 598.224L382.223 594.496C382.352 593.969 382.243 593.413 381.925 592.974C381.606 592.535 381.111 592.258 380.57 592.217C381.237 579.848 382.23 562.093 386.214 560.949C390.826 559.616 427.294 562.812 446.864 556.664C446.864 556.664 464.392 552.197 472.338 545.638C472.831 545.094 473.369 544.591 473.946 544.136C473.445 544.673 472.907 545.174 472.338 545.638C469.169 549.04 462.591 558.496 464.725 576.906C465.595 584.4 467.475 590.166 469.609 594.554C475.479 602.32 481.322 607.955 485.521 607.116C493.739 605.494 520.921 599.942 538.002 596.444C538.061 596.763 538.247 597.045 538.518 597.223C538.79 597.402 539.122 597.462 539.439 597.389L543.618 596.416C544.185 596.283 544.573 595.76 544.536 595.179L544.539 595.097Z" fill="#303D8B"/>
<path fill-rule="evenodd" clip-rule="evenodd" d="M380.326 607.185C380.168 604.78 380.1 602.189 380.189 599.492C379.957 599.586 379.707 599.63 379.457 599.622L368.593 599.255C368.439 599.249 368.287 599.224 368.139 599.179C368.933 603.942 369.514 607.024 369.514 607.024L380.357 607.185H380.326Z" fill="#FF7977"/>
<path fill-rule="evenodd" clip-rule="evenodd" d="M543.779 584.222L544.539 595.097L543.852 584.538C543.842 584.43 543.818 584.323 543.779 584.222Z" fill="#FF7977"/>
<path fill-rule="evenodd" clip-rule="evenodd" d="M553.179 583.734C550.323 583.899 547.144 584.077 543.779 584.222C543.817 584.324 543.84 584.43 543.848 584.538L544.536 595.097L552.482 593.468C552.482 593.468 551.509 586.603 553.179 583.734Z" fill="#FF7977"/>
<path d="M537.762 586.417V594.544" stroke="#050D2D" stroke-width="2" stroke-linecap="round"/>
<path d="M368.122 591.451L379.144 592.214" stroke="#C9E2F3" stroke-width="2" stroke-linecap="round"/>
<path d="M373.631 589.414C373.631 589.414 368.253 552.648 379.13 547.944C390.008 543.24 446.372 532.55 455.452 517.978" stroke="#C9E2F3" stroke-width="2" stroke-linecap="round"/>
<path fill-rule="evenodd" clip-rule="evenodd" d="M381.849 619.07C381.113 615.144 380.605 611.18 380.326 607.195L369.483 607.034C369.483 607.034 347.411 615.524 343.414 618.936C349.573 619.146 369.696 619.778 381.849 619.07Z" fill="#303D8B"/>
<path fill-rule="evenodd" clip-rule="evenodd" d="M342.796 619.727C342.431 622.304 382.096 621.486 382.096 620.607C382.096 620.435 382 619.899 381.849 619.06C369.696 619.778 349.573 619.146 343.414 618.926C343.128 619.12 342.911 619.401 342.796 619.727Z" fill="#C8E1F3"/>
<path d="M362.63 609.752L363.85 611.35" stroke="#C9E2F3" stroke-width="2" stroke-linecap="round"/>
<path d="M360.502 610.625L361.764 612.507" stroke="#C9E2F3" stroke-width="2" stroke-linecap="round"/>
<path d="M358.77 611.35L359.818 613.209" stroke="#C9E2F3" stroke-width="2" stroke-linecap="round"/>
<path fill-rule="evenodd" clip-rule="evenodd" d="M563.528 604.818C564.311 601.251 565.463 586.369 564.641 583.033C562.844 583.136 559.342 583.377 554.839 583.638L553.179 583.734C551.509 586.603 552.492 593.468 552.492 593.468C552.492 593.468 551.684 599.997 550.227 600.797C549.113 601.419 545.072 604.405 543.078 606.134C543.144 606.137 562.692 608.615 563.528 604.818Z" fill="#0A1658"/>
<path fill-rule="evenodd" clip-rule="evenodd" d="M541.972 607.268C541.649 608.075 560.733 609.694 564.129 607.429C567.525 605.165 567.432 583.105 565.94 582.978C565.83 582.978 565.38 582.978 564.641 583.033C565.463 586.369 564.298 601.244 563.528 604.818C562.692 608.597 543.144 606.137 543.071 606.134C542.65 606.454 542.279 606.837 541.972 607.268Z" fill="#C8E1F3"/>
<path d="M551.966 596.509L555.235 597.124" stroke="#C9E2F3" stroke-width="2" stroke-linecap="round"/>
<path d="M551.595 598.059L554.781 598.516" stroke="#C9E2F3" stroke-width="2" stroke-linecap="round"/>
<path d="M552.292 594.767L555.465 595.365" stroke="#C9E2F3" stroke-width="2" stroke-linecap="round"/>
<path fill-rule="evenodd" clip-rule="evenodd" d="M76.986 454.462C77.5325 463.138 78.8041 468.622 79.0756 472.072C80.1376 471.962 81.2683 471.807 82.485 471.601C98.3942 468.928 127.559 461.606 134.801 458.809C135.292 450.851 136.055 441.013 136.822 431.75C131.13 433.337 111.97 438.577 104.457 439.264C95.5863 440.072 76.0168 439.103 76.986 454.462Z" fill="white"/>
<path fill-rule="evenodd" clip-rule="evenodd" d="M139.496 385.579C139.496 385.579 154.092 385.579 158.292 386.067C157.969 378.799 158.326 370.439 158.536 366.605C148.125 367.935 137.952 367.917 131.247 367.024C118.51 365.327 110.994 365.811 110.994 365.811C110.306 365.845 109.619 365.897 108.956 365.955C109.759 368.775 110.377 371.645 110.805 374.546C110.805 374.546 93.6445 378.147 89.1147 382.998C84.5849 387.85 72.6178 382.572 67.521 399.278C62.4241 415.985 102.539 430.203 109.98 430.375C115.389 430.495 129.776 428.217 137.224 426.966C138.409 413.019 139.496 401.474 139.496 401.474C139.496 401.474 140.588 387.884 139.496 385.579Z" fill="white"/>
<path fill-rule="evenodd" clip-rule="evenodd" d="M139.495 401.467C146.319 400.141 152.984 398.102 159.381 395.382C158.783 393.001 158.453 389.668 158.292 386.063C154.092 385.575 139.495 385.575 139.495 385.575C140.588 387.884 139.495 401.467 139.495 401.467Z" fill="#C9E2F4"/>
<path fill-rule="evenodd" clip-rule="evenodd" d="M109.98 430.368C102.539 430.207 62.431 415.978 67.5209 399.272C72.6109 382.566 84.5884 387.843 89.1147 382.992C93.641 378.14 110.805 374.539 110.805 374.539C110.377 371.638 109.759 368.769 108.956 365.949C90.9397 367.547 79.055 377.848 71.3255 388.603C63.3177 399.76 65.5035 414.435 67.2013 428.262C68.0708 435.354 67.1566 451.703 66.0225 470.017C67.8784 471.478 71.6108 472.852 79.0825 472.079C78.811 468.643 77.5394 463.145 76.9929 454.469C76.0237 439.11 95.5932 440.079 104.464 439.271C111.977 438.584 131.137 433.344 136.829 431.757C136.963 430.138 137.1 428.537 137.231 426.967C129.776 428.21 115.389 430.489 109.98 430.368Z" fill="#C9E2F4"/>
<path fill-rule="evenodd" clip-rule="evenodd" d="M124.301 329.908C124.301 329.908 117.015 334.718 111.434 333.918C105.852 333.117 109.251 339.738 107.23 341.353C105.21 342.968 109.413 351.38 109.413 351.38C109.413 351.38 105.856 357.362 107.798 361.97C109.739 366.578 110.788 374.429 110.805 374.539C118.067 377.573 122.315 371.419 121.421 369.694C120.528 367.969 118.816 355.867 118.816 355.867C120.696 355.805 125.305 354.836 126.212 347.136C126.882 341.474 125.226 333.653 124.301 329.908Z" fill="#FF7977"/>
<path fill-rule="evenodd" clip-rule="evenodd" d="M109.413 351.38C109.413 351.38 105.21 342.972 107.231 341.353C109.251 339.735 105.856 333.107 111.434 333.917C117.012 334.728 124.301 329.908 124.301 329.908C124.257 329.739 124.219 329.564 124.178 329.427C123.91 328.365 123.727 327.733 123.727 327.733C123.727 327.733 102.137 321.97 98.556 330.217C94.9748 338.463 103.591 341.192 103.591 341.192C105.23 345.985 101.288 367.388 101.288 367.388C101.288 367.388 102.749 370.642 109.557 373.968C109.825 374.099 110.097 374.23 110.386 374.36C110.527 374.425 110.664 374.48 110.805 374.539C110.788 374.429 109.722 366.546 107.798 361.97C105.873 357.393 109.413 351.38 109.413 351.38Z" fill="#F45658"/>
<path fill-rule="evenodd" clip-rule="evenodd" d="M128.096 305.841C125.061 304.872 121.483 310.875 121.301 307.903C121.119 304.931 118.338 296.444 116.3 301.66C115.819 302.893 115.379 304.082 114.926 305.195C114.182 308.803 112.052 311.976 108.994 314.029C103.897 317.362 92.9813 328.763 98.6212 328.822C104.261 328.88 107.11 332.821 106.416 340.432C106.588 340.583 106.797 340.401 107.052 339.676C108.203 336.402 107.598 334.22 109.416 333.069C111.234 331.918 117.596 335.663 124.305 329.908C131.014 324.152 131.127 306.814 128.096 305.841Z" fill="#303D8B"/>
<path fill-rule="evenodd" clip-rule="evenodd" d="M98.6178 328.822C92.9779 328.763 103.893 317.362 108.99 314.029C112.049 311.976 114.179 308.803 114.922 305.195C113.448 308.779 111.784 311.542 107.897 312.329C102.804 313.359 102.804 314.15 102.075 314.816C101.347 315.483 83.5162 331.066 89.0358 335.433C94.5554 339.8 103.385 344.882 103.814 348.888C103.814 348.888 105.162 342.649 104.251 340.467C104.251 340.467 98.9752 340.405 99.2192 337.01C99.4632 333.615 102.189 332.763 105.646 335.189C105.646 335.189 105.794 339.903 106.406 340.432C107.107 332.821 104.258 328.884 98.6178 328.822Z" fill="#0A1658"/>
<path fill-rule="evenodd" clip-rule="evenodd" d="M93.0775 396.897C86.4478 393.018 75.4498 382.72 69.0195 394.337C68.1362 395.932 63.8058 408.741 71.4459 416.624C76.0891 421.414 85.0937 427.588 95.7307 431.292C98.0575 422.187 104.044 408.477 106.567 402.883C100.632 400.732 95.7891 398.474 93.0775 396.897Z" fill="white"/>
<path fill-rule="evenodd" clip-rule="evenodd" d="M185.941 370.027L184.862 359.375C177.452 363.107 167.898 365.395 158.536 366.591C158.326 370.426 157.969 378.786 158.292 386.053C158.292 386.067 185.725 380.349 185.941 370.027Z" fill="#FF7977"/>
<path fill-rule="evenodd" clip-rule="evenodd" d="M186.804 378.545L185.941 370.027C185.725 380.335 158.292 386.067 158.292 386.067C158.453 389.671 158.783 393.004 159.381 395.385C176.418 388.19 186.804 378.545 186.804 378.545Z" fill="#F45658"/>
<path fill-rule="evenodd" clip-rule="evenodd" d="M73.2676 527.417C73.2676 519.359 79.0759 472.072 79.0759 472.072C71.6111 472.859 67.8787 471.484 66.0159 470.01C64.9436 487.4 63.672 506.56 63.5551 521.266C63.3592 545.8 53.7154 584.016 49.0172 600.921C49.0172 600.921 73.2676 535.474 73.2676 527.417Z" fill="#0A1658"/>
<path fill-rule="evenodd" clip-rule="evenodd" d="M122.92 539.192C123.889 524.963 107.877 493.592 107.877 493.592C107.554 497.475 101.409 505.398 101.409 505.398C116.874 530.578 122.552 564.231 124.779 586.098C124.779 586.098 121.947 553.421 122.92 539.192Z" fill="#0A1658"/>
<path fill-rule="evenodd" clip-rule="evenodd" d="M61.7508 606.251L49.4606 602.646C49.1681 602.563 48.8964 602.419 48.6632 602.224C47.7593 605.443 47.0754 607.721 46.7352 608.804C46.6389 609.11 46.5393 609.415 46.4362 609.725L60.407 612.168C60.407 612.168 61.3349 609.938 62.8609 606.285C62.4939 606.368 62.1119 606.356 61.7508 606.251Z" fill="#FF7977"/>
<path fill-rule="evenodd" clip-rule="evenodd" d="M127.67 603.048C127.115 603.082 126.563 602.945 126.089 602.657C126.267 605.773 126.36 607.746 126.463 608.237C126.58 609.136 126.588 610.047 126.487 610.948L139.547 609.694C139.479 609.275 139.685 606.409 140.059 602.066C139.723 602.242 139.353 602.344 138.973 602.365L127.67 603.048Z" fill="#FF7977"/>
<path fill-rule="evenodd" clip-rule="evenodd" d="M135.372 470.57C135.073 468.725 134.32 466.65 134.801 458.809C127.56 461.606 98.3946 468.928 82.4854 471.601C81.2687 471.807 80.138 471.945 79.076 472.072C79.076 472.072 73.2677 519.359 73.2677 527.417C73.2677 534.079 56.6918 579.989 50.9522 595.685C49.8096 595.542 48.7426 596.282 48.4777 597.403L47.8969 599.97C47.7093 600.8 48.0058 601.665 48.6633 602.206C48.8965 602.402 49.1682 602.546 49.4606 602.629L61.7508 606.234C62.112 606.339 62.494 606.351 62.8609 606.268C63.5298 606.125 64.0975 605.687 64.4041 605.076L65.4351 603.014C65.8142 602.252 65.7318 601.342 65.2221 600.66C71.7968 585.016 83.403 557.709 88.7989 546.937C96.5627 531.413 101.416 505.381 101.416 505.381C101.416 505.381 107.561 497.458 107.884 493.575C107.884 493.575 123.896 524.946 122.927 539.175C121.958 553.404 124.796 586.084 124.796 586.084C125.14 589.294 125.381 592.249 125.583 594.884C124.726 595.465 124.267 596.478 124.398 597.506L124.796 600.646C124.983 602.076 126.244 603.119 127.683 603.035L139.004 602.347C139.384 602.327 139.754 602.225 140.09 602.048C140.865 601.651 141.405 600.911 141.548 600.052L142.094 596.674C142.261 595.588 141.765 594.507 140.833 593.926C142.496 576.274 145.301 549.301 146.047 542.584C147.177 532.564 136.506 477.525 135.372 470.57Z" fill="#303D8B"/>
<path d="M126.102 594.716L139.678 593.805" stroke="#C9E2F3" stroke-width="2" stroke-linecap="round"/>
<path d="M51.6738 596.111L63.4416 600.028" stroke="#C9E2F3" stroke-width="2" stroke-linecap="round"/>
<path d="M57.5579 596.111C57.5579 596.111 73.7523 549.219 75.0446 536.443C76.3368 523.668 79.076 472.072 79.076 472.072" stroke="#C9E2F3" stroke-width="2" stroke-linecap="round"/>
<path opacity="0.1" fill-rule="evenodd" clip-rule="evenodd" d="M280.324 357.857L237.233 326.475C234.152 324.258 230.083 323.972 226.723 325.736C225.326 326.444 224.103 327.452 223.142 328.688L203.627 355.489C202.994 355.071 202.258 354.833 201.5 354.802C201.228 354.843 201.524 356.726 201.448 358.582L199.544 361.087C198.955 360.718 198.488 360.184 198.201 359.551C197.988 359.511 197.77 359.511 197.558 359.551L206.287 415.085C207.104 414.737 207.867 414.274 208.552 413.71L228.802 428.454C233.27 431.705 239.295 430.86 242.577 426.565C242.701 426.477 242.809 426.368 242.893 426.242L282.541 371.945C283.705 370.374 284.339 368.474 284.352 366.519C284.577 363.133 283.058 359.867 280.324 357.857Z" fill="black"/>
<path fill-rule="evenodd" clip-rule="evenodd" d="M207.632 313.83L261.61 353.137C263.128 354.242 263.462 356.369 262.357 357.887C262.356 357.887 262.356 357.888 262.356 357.888L214.786 423.179C213.68 424.696 211.553 425.031 210.035 423.925L156.058 384.619C154.539 383.514 154.205 381.387 155.31 379.868C155.311 379.868 155.311 379.868 155.311 379.868L202.881 314.577C203.987 313.059 206.114 312.725 207.632 313.831L207.632 313.83Z" fill="#C9E2F4"/>
<path fill-rule="evenodd" clip-rule="evenodd" d="M203.211 327.823L215.543 336.803C216.144 337.241 216.276 338.082 215.839 338.683C215.839 338.683 215.839 338.683 215.839 338.683L206.856 351.012C206.418 351.612 205.577 351.744 204.976 351.307L192.644 342.327C192.043 341.89 191.911 341.048 192.348 340.447C192.348 340.447 192.349 340.447 192.349 340.447L201.332 328.119C201.769 327.518 202.61 327.386 203.211 327.823L203.211 327.823Z" fill="#0A1658"/>
<path fill-rule="evenodd" clip-rule="evenodd" d="M220.661 344.883L247.199 364.209C247.86 364.691 248.006 365.617 247.524 366.279C247.524 366.279 247.524 366.279 247.524 366.279L242.843 372.702C242.362 373.363 241.435 373.509 240.774 373.027L214.236 353.702C213.574 353.22 213.429 352.293 213.91 351.632C213.91 351.632 213.91 351.632 213.911 351.632L218.591 345.209C219.073 344.547 219.999 344.402 220.661 344.884L220.661 344.883Z" fill="#0A1658"/>
<path fill-rule="evenodd" clip-rule="evenodd" d="M188.803 347.601L201.135 356.581C201.736 357.018 201.868 357.86 201.431 358.46C201.431 358.46 201.431 358.46 201.431 358.461L192.447 370.789C192.01 371.389 191.169 371.522 190.568 371.084L178.236 362.104C177.635 361.667 177.503 360.825 177.94 360.225C177.94 360.225 177.94 360.225 177.94 360.224L186.924 347.896C187.361 347.296 188.202 347.163 188.803 347.601L188.803 347.601Z" fill="#0A1658"/>
<path fill-rule="evenodd" clip-rule="evenodd" d="M206.253 364.661L232.791 383.987C233.452 384.468 233.598 385.395 233.116 386.056C233.116 386.056 233.116 386.056 233.116 386.057L228.436 392.48C227.954 393.141 227.027 393.286 226.366 392.805L199.828 373.479C199.167 372.998 199.021 372.071 199.503 371.409C199.503 371.409 199.503 371.409 199.503 371.409L204.183 364.986C204.665 364.325 205.591 364.179 206.253 364.661L206.253 364.661Z" fill="#0A1658"/>
<path fill-rule="evenodd" clip-rule="evenodd" d="M174.393 367.38L186.725 376.36C187.325 376.797 187.458 377.639 187.02 378.239C187.02 378.239 187.02 378.239 187.02 378.24L178.037 390.568C177.599 391.168 176.758 391.301 176.158 390.863L163.825 381.883C163.225 381.446 163.092 380.604 163.53 380.004C163.53 380.004 163.53 380.004 163.53 380.004L172.513 367.675C172.951 367.075 173.792 366.942 174.392 367.38L174.393 367.38Z" fill="#0A1658"/>
<path fill-rule="evenodd" clip-rule="evenodd" d="M191.844 384.997L218.442 404.367C219.104 404.849 219.25 405.775 218.768 406.437C218.768 406.437 218.768 406.437 218.768 406.437L214.074 412.878C213.592 413.54 212.666 413.685 212.004 413.204L185.405 393.834C184.744 393.353 184.598 392.426 185.08 391.764C185.08 391.764 185.08 391.764 185.08 391.764L189.774 385.323C190.256 384.662 191.182 384.516 191.843 384.998L191.844 384.997Z" fill="#0A1658"/>
<path fill-rule="evenodd" clip-rule="evenodd" d="M185.436 362.805C185.094 362.556 184.896 362.155 184.907 361.733L185.044 357.09C185.065 356.383 185.656 355.826 186.364 355.847C187.072 355.867 187.629 356.458 187.608 357.166L187.526 359.915L194.87 357.242C195.307 357.053 195.814 357.122 196.184 357.421C196.555 357.72 196.729 358.2 196.637 358.667C196.544 359.134 196.2 359.512 195.743 359.647L186.625 362.956C186.227 363.1 185.783 363.038 185.44 362.791L185.436 362.805Z" fill="#E6E9F8"/>
<path fill-rule="evenodd" clip-rule="evenodd" d="M196.588 395.767C195.458 395.846 188.419 401.265 187.209 401.993C186 402.722 183.003 403.608 183.003 403.608L179.222 400.88C179.222 400.88 179.274 404.818 177.737 405.546C176.201 406.275 152.909 410.071 136.007 409.346C126.013 408.913 115.145 405.996 106.557 402.88C104.783 406.814 101.298 414.758 98.5763 422.294C98.5763 422.294 110.509 436.213 160.539 422.294C171.537 418.308 180.129 414.793 180.971 414.425C182.91 413.59 191.808 411.205 193.746 408.927C195.685 406.649 199.166 401.732 199.166 400.925C199.166 400.117 197.719 395.685 196.588 395.767Z" fill="#FF7977"/>
<path fill-rule="evenodd" clip-rule="evenodd" d="M98.5866 422.297C97.4353 425.479 96.4214 428.588 95.7306 431.293C102.604 433.698 110.165 435.048 117.661 434.33C128.394 433.299 146.448 427.413 160.55 422.304C110.519 436.216 98.5866 422.297 98.5866 422.297Z" fill="#F45658"/>
<path fill-rule="evenodd" clip-rule="evenodd" d="M139.578 609.694L126.518 610.948C126.205 615.099 124.913 622.067 124.755 625.259C129.611 624.895 149.964 623.397 161.873 623.033C155.106 619.198 139.829 611.206 139.578 609.694Z" fill="#303D8B"/>
<path fill-rule="evenodd" clip-rule="evenodd" d="M124.858 626.833C125.669 628.286 164.97 625.86 164.97 625.053C164.97 624.874 163.746 624.122 161.839 623.032C149.947 623.397 129.594 624.895 124.738 625.259C124.7 626.042 124.731 626.599 124.858 626.833Z" fill="#C8E1F3"/>
<path d="M143.806 612.872L141.606 614.838" stroke="#C9E2F3" stroke-width="2" stroke-linecap="round"/>
<path d="M145.936 614.143L143.551 616.215" stroke="#C9E2F3" stroke-width="2" stroke-linecap="round"/>
<path d="M147.967 615.315L145.936 617.476" stroke="#C9E2F3" stroke-width="2" stroke-linecap="round"/>
<path fill-rule="evenodd" clip-rule="evenodd" d="M81.7153 625.682C76.3504 621.703 60.4068 612.168 60.4068 612.168L46.436 609.725C44.6729 614.947 41.9063 620.789 41.0608 623.5C47.3571 624.098 71.2226 626.287 81.7153 625.682Z" fill="#303D8B"/>
<path fill-rule="evenodd" clip-rule="evenodd" d="M83.4542 627.286C83.4542 627.063 82.8012 626.486 81.7152 625.682C71.2225 626.269 47.3467 624.098 41.0675 623.5C40.9307 623.881 40.8463 624.278 40.8167 624.682C40.8167 626.41 83.4542 628.623 83.4542 627.286Z" fill="#C8E1F3"/>
<path d="M64.0499 614.367L60.6509 616.03" stroke="#C9E2F3" stroke-width="2" stroke-linecap="round"/>
<path d="M66.1327 615.638L62.8608 617.466" stroke="#C9E2F3" stroke-width="2" stroke-linecap="round"/>
<path d="M68.0608 616.823L64.9126 618.902" stroke="#C9E2F3" stroke-width="2" stroke-linecap="round"/>
</g>
<defs>
<linearGradient id="paint0_linear_3_189" x1="581" y1="-399" x2="-76.5" y2="1027.5" gradientUnits="userSpaceOnUse">
<stop stop-color="#03004D"/>
<stop offset="0.971829" stop-color="#3563EB"/>
</linearGradient>
<linearGradient id="paint1_linear_3_189" x1="300.708" y1="216.623" x2="305.065" y2="609.106" gradientUnits="userSpaceOnUse">
<stop stop-color="#303D8B"/>
<stop offset="0.81" stop-color="#111E62"/>
<stop offset="1" stop-color="#0A1658"/>
</linearGradient>
<clipPath id="clip0_3_189">
<rect width="554" height="824" fill="white"/>
</clipPath>
</defs>
</svg>
